# Blender 4.5.3 LTS
# www.blender.org
o gearlights
v -0.729354 1.025520 1.077146
v -0.739014 1.012416 1.086806
v -0.752209 1.012416 1.081340
v -0.752209 1.025520 1.067679
v -0.729354 1.025520 1.122857
v -0.739014 1.012416 1.113197
v -0.733548 1.012416 1.100002
v -0.719887 1.025520 1.100002
v -0.775065 1.025520 1.122857
v -0.765405 1.012416 1.113197
v -0.752209 1.007620 1.100002
v -0.752209 1.012416 1.118663
v -0.752209 1.025520 1.132324
v -0.775065 1.025520 1.077146
v -0.765405 1.012416 1.086806
v -0.770871 1.012416 1.100002
v -0.784532 1.025520 1.100002
v -0.725818 1.044697 1.073610
v -0.752209 1.044697 1.062679
v -0.725818 1.044697 1.126393
v -0.714886 1.044697 1.100002
v -0.778601 1.044697 1.126393
v -0.752209 1.044697 1.137325
v -0.778601 1.044697 1.073610
v -0.789532 1.044697 1.100002
v 2.116934 1.044697 1.100001
v 2.127865 1.044697 1.073609
v 2.154257 1.044697 1.137324
v 2.127865 1.044697 1.126392
v 2.191580 1.044697 1.100001
v 2.180648 1.044697 1.126392
v 2.154257 1.044697 1.062678
v 2.180648 1.044697 1.073609
v 2.121934 1.025520 1.100001
v 2.135595 1.012416 1.100001
v 2.141061 1.012416 1.086805
v 2.131401 1.025520 1.077145
v 2.154257 1.025520 1.132323
v 2.154257 1.012416 1.118662
v 2.154257 1.007620 1.100001
v 2.141061 1.012416 1.113196
v 2.131401 1.025520 1.122856
v 2.186579 1.025520 1.100001
v 2.172918 1.012416 1.100001
v 2.167452 1.012416 1.113196
v 2.177112 1.025520 1.122856
v 2.154257 1.025520 1.067678
v 2.154257 1.012416 1.081339
v 2.167452 1.012416 1.086805
v 2.177112 1.025520 1.077145
v -0.729354 1.025520 -1.077145
v -0.739014 1.012416 -1.086805
v -0.752209 1.012416 -1.081339
v -0.752209 1.025520 -1.067678
v -0.729354 1.025520 -1.122856
v -0.739014 1.012416 -1.113196
v -0.733548 1.012416 -1.100001
v -0.719887 1.025520 -1.100001
v -0.775065 1.025520 -1.122856
v -0.765405 1.012416 -1.113196
v -0.752209 1.007620 -1.100001
v -0.752209 1.012416 -1.118662
v -0.752209 1.025520 -1.132323
v -0.775065 1.025520 -1.077145
v -0.765405 1.012416 -1.086805
v -0.770871 1.012416 -1.100001
v -0.784532 1.025520 -1.100001
v -0.725818 1.044697 -1.073609
v -0.752209 1.044697 -1.062678
v -0.725818 1.044697 -1.126392
v -0.714886 1.044697 -1.100001
v -0.778601 1.044697 -1.126392
v -0.752209 1.044697 -1.137324
v -0.778601 1.044697 -1.073609
v -0.789532 1.044697 -1.100001
v 2.116934 1.044697 -1.100000
v 2.127865 1.044697 -1.073608
v 2.154257 1.044697 -1.137323
v 2.127865 1.044697 -1.126391
v 2.191580 1.044697 -1.100000
v 2.180648 1.044697 -1.126391
v 2.154257 1.044697 -1.062677
v 2.180648 1.044697 -1.073608
v 2.121934 1.025520 -1.100000
v 2.135595 1.012416 -1.100000
v 2.141061 1.012416 -1.086804
v 2.131401 1.025520 -1.077144
v 2.154257 1.025520 -1.132322
v 2.154257 1.012416 -1.118661
v 2.154257 1.007620 -1.100000
v 2.141061 1.012416 -1.113195
v 2.131401 1.025520 -1.122855
v 2.186579 1.025520 -1.100000
v 2.172918 1.012416 -1.100000
v 2.167452 1.012416 -1.113195
v 2.177112 1.025520 -1.122855
v 2.154257 1.025520 -1.067677
v 2.154257 1.012416 -1.081338
v 2.167452 1.012416 -1.086804
v 2.177112 1.025520 -1.077144
vn 0.6207 -0.4790 -0.6207
vn 0.3760 -0.8469 -0.3760
vn -0.0000 -0.8469 -0.5317
vn -0.0000 -0.4790 -0.8778
vn 0.6207 -0.4790 0.6207
vn 0.3760 -0.8469 0.3760
vn 0.5317 -0.8469 -0.0000
vn 0.8778 -0.4790 -0.0000
vn -0.6207 -0.4790 0.6207
vn -0.3760 -0.8469 0.3760
vn -0.0000 -1.0000 -0.0000
vn -0.0000 -0.8469 0.5317
vn -0.0000 -0.4790 0.8778
vn -0.6207 -0.4790 -0.6207
vn -0.3760 -0.8469 -0.3760
vn -0.5317 -0.8469 -0.0000
vn -0.8778 -0.4790 -0.0000
vn 0.6842 -0.2523 -0.6842
vn -0.0000 -0.2523 -0.9676
vn 0.6842 -0.2523 0.6842
vn 0.9676 -0.2523 -0.0000
vn -0.6842 -0.2523 0.6842
vn -0.0000 -0.2523 0.9676
vn -0.6842 -0.2523 -0.6842
vn -0.9676 -0.2523 -0.0000
vt 0.442767 0.248368
vt 0.455563 0.254214
vt 0.455876 0.243446
vt 0.436509 0.261089
vt 0.447628 0.261932
vt 0.430495 0.242472
vt 0.429556 0.252849
vt 0.416470 0.236006
vt 0.393603 0.227760
vt 0.393603 0.268059
vt 0.415251 0.258582
vt 0.448547 0.235974
vt 0.437979 0.234978
vt 0.459886 0.300717
vt 0.453133 0.276775
vt 0.430206 0.275952
vt 0.420348 0.296197
vt 0.470978 0.238897
vt 0.455369 0.221807
vt 0.469116 0.261314
vt 0.432714 0.220461
vt 0.422095 0.198179
vt 0.494374 0.273279
vt 0.494865 0.228213
vt 0.464157 0.198009
vt 0.534588 0.276346
vt 0.523846 0.299616
vt 0.568406 0.299752
vt 0.556741 0.274515
vt 0.596595 0.265868
vt 0.572623 0.258646
vt 0.516440 0.237549
vt 0.494865 0.229209
vt 0.495080 0.269188
vt 0.518055 0.260628
vt 0.554780 0.220490
vt 0.564483 0.198009
vt 0.522075 0.198009
vt 0.532675 0.222045
vt 0.592937 0.225793
vt 0.572248 0.235528
vt 0.544978 0.248424
vt 0.539440 0.235559
vt 0.531580 0.243233
vt 0.557952 0.242971
vt 0.550236 0.235419
vt 0.550430 0.260834
vt 0.557873 0.253645
vt 0.532404 0.254043
vt 0.539896 0.261694
s 1
f 11/1/11 3/2/3 2/3/2
f 11/1/11 16/4/16 15/5/15
f 11/1/11 12/6/12 10/7/10
f 13/8/13 23/9/23 22/10/22 9/11/9
f 11/1/11 7/12/7 6/13/6
f 24/14/24 14/15/14 17/16/17 25/17/25
f 2/3/2 1/18/1 8/19/8 7/12/7
f 11/1/11 2/3/2 7/12/7
f 10/7/10 9/11/9 17/16/17 16/4/16
f 11/1/11 10/7/10 16/4/16
f 15/5/15 14/15/14 4/20/4 3/2/3
f 11/1/11 15/5/15 3/2/3
f 6/13/6 5/21/5 13/8/13 12/6/12
f 3/2/3 4/20/4 1/18/1 2/3/2
f 12/6/12 13/8/13 9/11/9 10/7/10
f 5/21/5 20/22/20 23/9/23 13/8/13
f 16/4/16 17/16/17 14/15/14 15/5/15
f 11/1/11 6/13/6 12/6/12
f 7/12/7 8/19/8 5/21/5 6/13/6
f 9/11/9 22/10/22 25/17/25 17/16/17
f 14/15/14 24/14/24 19/23/19 4/20/4
f 4/20/4 19/23/19 18/24/18 1/18/1
f 8/19/8 21/25/21 20/22/20 5/21/5
f 1/18/1 18/24/18 21/25/21 8/19/8
f 50/26/1 33/27/18 30/28/21 43/29/8
f 43/29/8 30/28/21 31/30/20 46/31/5
f 37/32/14 27/33/24 32/34/19 47/35/4
f 42/36/9 29/37/22 26/38/25 34/39/17
f 47/35/4 32/34/19 33/27/18 50/26/1
f 46/31/5 31/30/20 28/40/23 38/41/13
f 40/42/11 35/43/16 36/44/15
f 35/43/16 34/39/17 37/32/14 36/44/15
f 38/41/13 28/40/23 29/37/22 42/36/9
f 40/42/11 39/45/12 41/46/10
f 39/45/12 38/41/13 42/36/9 41/46/10
f 40/42/11 44/47/7 45/48/6
f 44/47/7 43/29/8 46/31/5 45/48/6
f 40/42/11 48/49/3 49/50/2
f 48/49/3 47/35/4 50/26/1 49/50/2
f 40/42/11 45/48/6 39/45/12
f 45/48/6 46/31/5 38/41/13 39/45/12
f 40/42/11 36/44/15 48/49/3
f 36/44/15 37/32/14 47/35/4 48/49/3
f 40/42/11 41/46/10 35/43/16
f 41/46/10 42/36/9 34/39/17 35/43/16
f 40/42/11 49/50/2 44/47/7
f 49/50/2 50/26/1 43/29/8 44/47/7
f 27/33/24 37/32/14 34/39/17 26/38/25
f 61/1/11 52/3/6 53/2/12
f 61/1/11 65/5/10 66/4/16
f 61/1/11 60/7/15 62/6/3
f 63/8/4 59/11/14 72/10/24 73/9/19
f 61/1/11 56/13/2 57/12/7
f 74/14/22 75/17/25 67/16/17 64/15/9
f 52/3/6 57/12/7 58/19/8 51/18/5
f 61/1/11 57/12/7 52/3/6
f 60/7/15 66/4/16 67/16/17 59/11/14
f 61/1/11 66/4/16 60/7/15
f 65/5/10 53/2/12 54/20/13 64/15/9
f 61/1/11 53/2/12 65/5/10
f 56/13/2 62/6/3 63/8/4 55/21/1
f 53/2/12 52/3/6 51/18/5 54/20/13
f 62/6/3 60/7/15 59/11/14 63/8/4
f 55/21/1 63/8/4 73/9/19 70/22/18
f 66/4/16 65/5/10 64/15/9 67/16/17
f 61/1/11 62/6/3 56/13/2
f 57/12/7 56/13/2 55/21/1 58/19/8
f 59/11/14 67/16/17 75/17/25 72/10/24
f 64/15/9 54/20/13 69/23/23 74/14/22
f 54/20/13 51/18/5 68/24/20 69/23/23
f 58/19/8 55/21/1 70/22/18 71/25/21
f 51/18/5 58/19/8 71/25/21 68/24/20
f 100/26/5 93/29/8 80/28/21 83/27/20
f 93/29/8 96/31/1 81/30/18 80/28/21
f 87/32/9 97/35/13 82/34/23 77/33/22
f 92/36/14 84/39/17 76/38/25 79/37/24
f 97/35/13 100/26/5 83/27/20 82/34/23
f 96/31/1 88/41/4 78/40/19 81/30/18
f 90/42/11 86/44/10 85/43/16
f 85/43/16 86/44/10 87/32/9 84/39/17
f 88/41/4 92/36/14 79/37/24 78/40/19
f 90/42/11 91/46/15 89/45/3
f 89/45/3 91/46/15 92/36/14 88/41/4
f 90/42/11 95/48/2 94/47/7
f 94/47/7 95/48/2 96/31/1 93/29/8
f 90/42/11 99/50/6 98/49/12
f 98/49/12 99/50/6 100/26/5 97/35/13
f 90/42/11 89/45/3 95/48/2
f 95/48/2 89/45/3 88/41/4 96/31/1
f 90/42/11 98/49/12 86/44/10
f 86/44/10 98/49/12 97/35/13 87/32/9
f 90/42/11 85/43/16 91/46/15
f 91/46/15 85/43/16 84/39/17 92/36/14
f 90/42/11 94/47/7 99/50/6
f 99/50/6 94/47/7 93/29/8 100/26/5
f 77/33/22 76/38/25 84/39/17 87/32/9
