# Blender 4.5.3 LTS
# www.blender.org
o Cube.128
v -2.320776 2.221458 0.922490
v -2.320776 2.219574 0.922490
v -2.320776 2.221458 0.892422
v -2.320776 2.219574 0.892422
v -2.316407 2.221458 0.922490
v -2.316407 2.219574 0.922490
v -2.316407 2.221458 0.892422
v -2.316407 2.219574 0.892422
v -2.115544 2.221458 0.922490
v -2.115544 2.219574 0.922490
v -2.115544 2.221458 0.892422
v -2.115544 2.219574 0.892422
v -2.119910 2.221458 0.922490
v -2.119910 2.219574 0.922490
v -2.119910 2.221458 0.892422
v -2.119910 2.219574 0.892422
v -2.217893 2.221458 0.922490
v -2.217893 2.219574 0.922490
v -2.217893 2.221458 0.892422
v -2.217893 2.219574 0.892422
v -2.213509 2.221458 0.922490
v -2.213509 2.219574 0.922490
v -2.213509 2.221458 0.892422
v -2.213509 2.219574 0.892422
v -2.269336 2.221458 0.909343
v -2.269336 2.219574 0.909343
v -2.269336 2.221458 0.892422
v -2.269336 2.219574 0.892422
v -2.264964 2.221458 0.909343
v -2.264964 2.219574 0.909343
v -2.264964 2.221458 0.892422
v -2.264964 2.219574 0.892422
v -2.164524 2.221458 0.909343
v -2.164524 2.219574 0.909343
v -2.164524 2.221458 0.892422
v -2.164524 2.219574 0.892422
v -2.168896 2.221458 0.909343
v -2.168896 2.219574 0.909343
v -2.168896 2.221458 0.892422
v -2.168896 2.219574 0.892422
vn -1.0000 -0.0000 -0.0000
vn -0.0000 -0.0000 -1.0000
vn 1.0000 -0.0000 -0.0000
vn -0.0000 -0.0000 1.0000
vn -0.0000 1.0000 -0.0000
vt 0.188291 0.578059
vt 0.273759 0.578059
vt 0.273759 0.572705
vt 0.188291 0.572705
vt 0.273759 0.633109
vt 0.286176 0.633109
vt 0.286176 0.627754
vt 0.273759 0.627754
vt 0.273759 0.567350
vt 0.188291 0.567350
vt 0.273759 0.638463
vt 0.286176 0.638463
vt 0.273759 0.602911
vt 0.188291 0.602911
vt 0.188291 0.615328
vt 0.273759 0.615328
vt 0.273759 0.561995
vt 0.188291 0.561995
vt 0.286185 0.620683
vt 0.286185 0.615328
vt 0.273759 0.620683
vt 0.273759 0.556640
vt 0.188291 0.556640
vt 0.286185 0.556640
vt 0.286185 0.551285
vt 0.273759 0.551285
vt 0.188291 0.627754
vt 0.188291 0.551285
vt 0.286205 0.567350
vt 0.286205 0.561995
vt 0.273759 0.545931
vt 0.188291 0.545931
vt 0.286205 0.551285
vt 0.286205 0.545931
vt 0.188291 0.640200
vt 0.273759 0.640200
vt 0.236389 0.583414
vt 0.284487 0.583414
vt 0.284487 0.578059
vt 0.236389 0.578059
vt 0.286185 0.609973
vt 0.273759 0.609973
vt 0.236389 0.588769
vt 0.284487 0.588769
vt 0.286185 0.561995
vt 0.236389 0.590485
vt 0.188291 0.590485
vt 0.236389 0.602911
vt 0.284487 0.594124
vt 0.236389 0.594124
vt 0.286185 0.627754
vt 0.286185 0.622399
vt 0.273759 0.622399
vt 0.284487 0.602911
vt 0.284487 0.597556
vt 0.236389 0.597556
vt 0.286185 0.572705
vt 0.286185 0.567350
s 0
f 1/1/1 3/2/1 4/3/1 2/4/1
f 3/5/2 7/6/2 8/7/2 4/8/2
f 7/4/3 5/3/3 6/9/3 8/10/3
f 5/11/4 1/12/4 2/6/4 6/5/4
f 3/13/5 1/14/5 5/15/5 7/16/5
f 9/9/3 10/17/3 12/18/3 11/10/3
f 11/19/2 12/20/2 16/16/2 15/21/2
f 15/17/1 16/22/1 14/23/1 13/18/1
f 13/24/4 14/25/4 10/26/4 9/22/4
f 11/8/5 15/16/5 13/15/5 9/27/5
f 17/23/1 19/22/1 20/26/1 18/28/1
f 19/9/2 23/29/2 24/30/2 20/17/2
f 23/28/3 21/26/3 22/31/3 24/32/3
f 21/26/4 17/33/4 18/34/4 22/31/4
f 19/8/5 17/27/5 21/35/5 23/36/5
f 25/37/1 27/38/1 28/39/1 26/40/1
f 27/16/2 31/20/2 32/41/2 28/42/2
f 31/43/3 29/44/3 30/38/3 32/37/3
f 29/17/4 25/45/4 26/24/4 30/22/4
f 27/46/5 25/47/5 29/14/5 31/48/5
f 33/49/3 34/44/3 36/43/3 35/50/3
f 35/51/2 36/52/2 40/53/2 39/8/2
f 39/54/1 40/55/1 38/56/1 37/48/1
f 37/57/4 38/58/4 34/9/4 33/3/4
f 35/46/5 39/40/5 37/1/5 33/47/5
