# Blender 4.5.2 LTS
# www.blender.org
o cab_details.001
v -2.461411 2.539555 0.189855
v -2.467459 2.539555 0.192361
v -2.469965 2.539555 0.198410
v -2.467459 2.539555 0.204458
v -2.461411 2.539555 0.206964
v -2.455362 2.539555 0.204458
v -2.452856 2.539555 0.198410
v -2.455362 2.539555 0.192361
v -2.461411 2.314597 0.189855
v -2.467459 2.314597 0.192361
v -2.469965 2.314597 0.198410
v -2.467459 2.314597 0.204458
v -2.461411 2.314597 0.206964
v -2.455362 2.314597 0.204458
v -2.452856 2.314597 0.198410
v -2.455362 2.314597 0.192361
v -2.461410 2.539555 -0.189854
v -2.467459 2.539555 -0.192360
v -2.469965 2.539555 -0.198409
v -2.467459 2.539555 -0.204457
v -2.461410 2.539555 -0.206963
v -2.455362 2.539555 -0.204457
v -2.452856 2.539555 -0.198409
v -2.455362 2.539555 -0.192360
v -2.461410 2.314597 -0.189854
v -2.467459 2.314597 -0.192360
v -2.469965 2.314597 -0.198409
v -2.467459 2.314597 -0.204457
v -2.461410 2.314597 -0.206963
v -2.455362 2.314597 -0.204457
v -2.452856 2.314597 -0.198409
v -2.455362 2.314597 -0.192360
vn -0.0000 -0.0000 -1.0000
vn -0.7071 -0.0000 -0.7071
vn -1.0000 -0.0000 -0.0000
vn -0.7071 -0.0000 0.7071
vn -0.0000 -0.0000 1.0000
vn 0.7071 -0.0000 0.7071
vn 1.0000 -0.0000 -0.0000
vn 0.7071 -0.0000 -0.7071
vt 0.426842 0.496384
vt 0.463326 0.496384
vt 0.463326 0.497446
vt 0.426842 0.497446
vt 0.426842 0.494261
vt 0.463326 0.494261
vt 0.463326 0.495323
vt 0.426842 0.495323
vt 0.426842 0.491075
vt 0.463326 0.491075
vt 0.463326 0.492137
vt 0.426842 0.492137
vt 0.463326 0.498508
vt 0.426842 0.498508
vt 0.426842 0.493199
vt 0.463326 0.493199
vt 0.463326 0.499570
vt 0.426842 0.499570
s 1
f 4/1/4 12/2/4 13/3/5 5/4/5
f 2/5/2 10/6/2 11/7/3 3/8/3
f 7/9/7 15/10/7 16/11/8 8/12/8
f 5/4/5 13/3/5 14/13/6 6/14/6
f 3/8/3 11/7/3 12/2/4 4/1/4
f 1/15/1 9/16/1 10/6/2 2/5/2
f 8/12/8 16/11/8 9/16/1 1/15/1
f 6/14/6 14/13/6 15/17/7 7/18/7
f 20/1/2 21/4/1 29/3/1 28/2/2
f 18/5/4 19/8/3 27/7/3 26/6/4
f 23/9/7 24/12/6 32/11/6 31/10/7
f 21/4/1 22/14/8 30/13/8 29/3/1
f 19/8/3 20/1/2 28/2/2 27/7/3
f 17/15/5 18/5/4 26/6/4 25/16/5
f 24/12/6 17/15/5 25/16/5 32/11/6
f 22/14/8 23/18/7 31/17/7 30/13/8
o Circle.093
v -1.911801 3.033827 0.569132
v -1.911801 3.066807 0.575692
v -1.911801 3.094766 0.594374
v -1.911801 3.113448 0.622333
v -1.911801 3.120008 0.655313
v -1.911801 3.113448 0.688293
v -1.911801 3.094766 0.716252
v -1.911801 3.066807 0.734934
v -1.911801 3.033827 0.741494
v -1.911801 3.000847 0.734934
v -1.911801 2.972888 0.716252
v -1.911801 2.954207 0.688293
v -1.911801 2.947647 0.655313
v -1.911801 2.954207 0.622333
v -1.911801 2.972888 0.594374
v -1.911801 3.000847 0.575692
v -1.926241 3.033827 0.655313
v -1.926241 3.038358 0.644376
v -1.920370 3.055401 0.603230
v -1.920370 3.033827 0.598939
v -1.926241 3.033827 0.643475
v -1.926241 3.042198 0.646942
v -1.920370 3.073689 0.615451
v -1.926241 3.044765 0.650783
v -1.920370 3.085910 0.633740
v -1.926241 3.045666 0.655313
v -1.920370 3.090201 0.655313
v -1.926241 3.044765 0.659843
v -1.920370 3.085910 0.676886
v -1.926241 3.042198 0.663684
v -1.920370 3.073689 0.695175
v -1.926241 3.038357 0.666250
v -1.920370 3.055401 0.707395
v -1.926241 3.033827 0.667151
v -1.920370 3.033827 0.711687
v -1.926241 3.029297 0.666250
v -1.920370 3.012254 0.707396
v -1.926241 3.025456 0.663684
v -1.920370 2.993965 0.695175
v -1.926241 3.022890 0.659843
v -1.920370 2.981745 0.676886
v -1.926241 3.021989 0.655313
v -1.920370 2.977454 0.655313
v -1.926241 3.022890 0.650783
v -1.920370 2.981745 0.633740
v -1.926241 3.025456 0.646942
v -1.920370 2.993965 0.615451
v -1.926241 3.029297 0.644376
v -1.920370 3.012254 0.603230
vn -0.9611 -0.0000 -0.2763
vn -0.9611 0.1057 -0.2553
vn -0.9611 0.1954 -0.1954
vn -0.9611 0.2553 -0.1057
vn -0.9611 0.2763 -0.0000
vn -0.9611 0.2553 0.1057
vn -0.9611 0.1954 0.1954
vn -0.9611 0.1057 0.2553
vn -0.9611 -0.0000 0.2763
vn -0.9611 -0.1057 0.2553
vn -0.9611 -0.1954 0.1954
vn -0.9611 -0.2553 0.1057
vn -0.9611 -0.2763 -0.0000
vn -0.9611 -0.2553 -0.1057
vn -0.9611 -0.1954 -0.1954
vn -0.9611 -0.1057 -0.2553
vn -1.0000 -0.0000 -0.0000
vn -0.9973 0.0282 -0.0680
vn -0.9771 0.0815 -0.1967
vn -0.9771 -0.0000 -0.2129
vn -0.9973 -0.0000 -0.0736
vn -0.9973 0.0521 -0.0521
vn -0.9771 0.1506 -0.1506
vn -0.9973 0.0680 -0.0282
vn -0.9771 0.1967 -0.0815
vn -0.9973 0.0736 -0.0000
vn -0.9771 0.2129 -0.0000
vn -0.9973 0.0680 0.0282
vn -0.9771 0.1967 0.0815
vn -0.9973 0.0521 0.0521
vn -0.9771 0.1506 0.1506
vn -0.9973 0.0282 0.0680
vn -0.9771 0.0815 0.1967
vn -0.9973 -0.0000 0.0736
vn -0.9771 -0.0000 0.2129
vn -0.9973 -0.0282 0.0680
vn -0.9771 -0.0815 0.1967
vn -0.9973 -0.0521 0.0521
vn -0.9771 -0.1506 0.1506
vn -0.9973 -0.0680 0.0282
vn -0.9771 -0.1967 0.0815
vn -0.9973 -0.0736 -0.0000
vn -0.9771 -0.2129 -0.0000
vn -0.9973 -0.0680 -0.0282
vn -0.9771 -0.1967 -0.0815
vn -0.9973 -0.0521 -0.0521
vn -0.9771 -0.1506 -0.1506
vn -0.9973 -0.0282 -0.0680
vn -0.9771 -0.0815 -0.1967
vt 0.000000 0.000000
s 1
f 51/19/27 55/19/31 35/19/11 34/19/10
f 54/19/30 50/19/26 49/19/25
f 81/19/57 52/19/28 33/19/9 48/19/24
f 57/19/33 59/19/35 37/19/13 36/19/12
f 59/19/35 61/19/37 38/19/14 37/19/13
f 61/19/37 63/19/39 39/19/15 38/19/14
f 63/19/39 65/19/41 40/19/16 39/19/15
f 65/19/41 67/19/43 41/19/17 40/19/16
f 67/19/43 69/19/45 42/19/18 41/19/17
f 69/19/45 71/19/47 43/19/19 42/19/18
f 71/19/47 73/19/49 44/19/20 43/19/19
f 73/19/49 75/19/51 45/19/21 44/19/20
f 75/19/51 77/19/53 46/19/22 45/19/21
f 77/19/53 79/19/55 47/19/23 46/19/22
f 79/19/55 81/19/57 48/19/24 47/19/23
f 55/19/31 57/19/33 36/19/12 35/19/11
f 51/19/27 52/19/28 53/19/29 50/19/26
f 55/19/31 51/19/27 50/19/26 54/19/30
f 57/19/33 55/19/31 54/19/30 56/19/32
f 59/19/35 57/19/33 56/19/32 58/19/34
f 61/19/37 59/19/35 58/19/34 60/19/36
f 63/19/39 61/19/37 60/19/36 62/19/38
f 65/19/41 63/19/39 62/19/38 64/19/40
f 67/19/43 65/19/41 64/19/40 66/19/42
f 69/19/45 67/19/43 66/19/42 68/19/44
f 71/19/47 69/19/45 68/19/44 70/19/46
f 73/19/49 71/19/47 70/19/46 72/19/48
f 75/19/51 73/19/49 72/19/48 74/19/50
f 77/19/53 75/19/51 74/19/50 76/19/52
f 79/19/55 77/19/53 76/19/52 78/19/54
f 81/19/57 79/19/55 78/19/54 80/19/56
f 52/19/28 81/19/57 80/19/56 53/19/29
f 52/19/28 51/19/27 34/19/10 33/19/9
f 64/19/40 62/19/38 49/19/25
f 74/19/50 72/19/48 49/19/25
f 60/19/36 58/19/34 49/19/25
f 70/19/46 68/19/44 49/19/25
f 80/19/56 78/19/54 49/19/25
f 56/19/32 54/19/30 49/19/25
f 66/19/42 64/19/40 49/19/25
f 76/19/52 74/19/50 49/19/25
f 53/19/29 80/19/56 49/19/25
f 50/19/26 53/19/29 49/19/25
f 62/19/38 60/19/36 49/19/25
f 72/19/48 70/19/46 49/19/25
f 58/19/34 56/19/32 49/19/25
f 68/19/44 66/19/42 49/19/25
f 78/19/54 76/19/52 49/19/25
o Circle.113
v -1.911801 2.732743 0.569005
v -1.911801 2.765723 0.575565
v -1.911801 2.793682 0.594247
v -1.911801 2.812364 0.622206
v -1.911801 2.818924 0.655186
v -1.911801 2.812364 0.688165
v -1.911801 2.793682 0.716125
v -1.911801 2.765723 0.734806
v -1.911801 2.732743 0.741366
v -1.911801 2.699763 0.734806
v -1.911801 2.699763 0.575565
v -1.926241 2.732743 0.655186
v -1.926241 2.737273 0.644248
v -1.920370 2.754316 0.603103
v -1.920370 2.732743 0.598812
v -1.926241 2.732743 0.643347
v -1.926241 2.741114 0.646815
v -1.920370 2.772605 0.615323
v -1.926241 2.743680 0.650655
v -1.920370 2.784826 0.633612
v -1.926241 2.744581 0.655186
v -1.920370 2.789117 0.655186
v -1.926241 2.743680 0.659716
v -1.920370 2.784826 0.676759
v -1.926241 2.741114 0.663557
v -1.920370 2.772605 0.695048
v -1.926241 2.737273 0.666123
v -1.920370 2.754316 0.707268
v -1.926241 2.732743 0.667024
v -1.920370 2.732743 0.711559
v -1.926241 2.727181 0.666123
v -1.920370 2.711170 0.707268
v -1.926241 2.728213 0.661963
v -1.926241 2.728213 0.658853
v -1.926241 2.728213 0.655186
v -1.926241 2.728213 0.651518
v -1.926241 2.728213 0.648408
v -1.926241 2.727181 0.644248
v -1.920370 2.711170 0.603103
vn -0.9611 -0.0000 -0.2763
vn -0.9611 0.1057 -0.2553
vn -0.9611 0.1954 -0.1954
vn -0.9611 0.2553 -0.1057
vn -0.9611 0.2763 -0.0000
vn -0.9611 0.2553 0.1057
vn -0.9611 0.1954 0.1954
vn -0.9611 0.1057 0.2553
vn -0.9611 -0.0000 0.2763
vn -0.9596 -0.0549 0.2759
vn -0.9596 -0.0549 -0.2759
vn -1.0000 -0.0000 -0.0000
vn -0.9973 0.0282 -0.0680
vn -0.9771 0.0815 -0.1967
vn -0.9770 0.0002 -0.2130
vn -0.9973 0.0004 -0.0730
vn -0.9973 0.0521 -0.0521
vn -0.9771 0.1506 -0.1506
vn -0.9973 0.0680 -0.0282
vn -0.9771 0.1967 -0.0815
vn -0.9973 0.0736 -0.0000
vn -0.9771 0.2129 -0.0000
vn -0.9973 0.0680 0.0282
vn -0.9771 0.1967 0.0815
vn -0.9973 0.0521 0.0521
vn -0.9771 0.1506 0.1506
vn -0.9973 0.0282 0.0680
vn -0.9771 0.0815 0.1967
vn -0.9973 0.0004 0.0730
vn -0.9770 0.0002 0.2130
vn -0.9973 -0.0137 0.0716
vn -0.9763 -0.0418 0.2124
vn -0.9973 -0.0137 -0.0716
vn -0.9763 -0.0418 -0.2124
vt 0.000000 0.000000
s 1
f 95/20/71 99/20/75 84/20/60 83/20/59
f 98/20/74 94/20/70 93/20/69
f 120/20/91 96/20/72 82/20/58 92/20/68
f 101/20/77 103/20/79 86/20/62 85/20/61
f 103/20/79 105/20/81 87/20/63 86/20/62
f 105/20/81 107/20/83 88/20/64 87/20/63
f 107/20/83 109/20/85 89/20/65 88/20/64
f 109/20/85 111/20/87 90/20/66 89/20/65
f 111/20/87 113/20/89 91/20/67 90/20/66
f 99/20/75 101/20/77 85/20/61 84/20/60
f 95/20/71 96/20/72 97/20/73 94/20/70
f 99/20/75 95/20/71 94/20/70 98/20/74
f 101/20/77 99/20/75 98/20/74 100/20/76
f 103/20/79 101/20/77 100/20/76 102/20/78
f 105/20/81 103/20/79 102/20/78 104/20/80
f 107/20/83 105/20/81 104/20/80 106/20/82
f 109/20/85 107/20/83 106/20/82 108/20/84
f 111/20/87 109/20/85 108/20/84 110/20/86
f 113/20/89 111/20/87 110/20/86 112/20/88
f 96/20/72 120/20/91 119/20/90 97/20/73
f 96/20/72 95/20/71 83/20/59 82/20/58
f 108/20/84 106/20/82 93/20/69
f 116/20/69 115/20/69 93/20/69
f 104/20/80 102/20/78 93/20/69
f 114/20/69 112/20/88 93/20/69
f 119/20/90 118/20/69 93/20/69
f 100/20/76 98/20/74 93/20/69
f 110/20/86 108/20/84 93/20/69
f 117/20/69 116/20/69 93/20/69
f 97/20/73 119/20/90 93/20/69
f 94/20/70 97/20/73 93/20/69
f 106/20/82 104/20/80 93/20/69
f 115/20/69 114/20/69 93/20/69
f 102/20/78 100/20/76 93/20/69
f 112/20/88 110/20/86 93/20/69
f 118/20/69 117/20/69 93/20/69
o Circle.140
v -2.337767 3.173080 -0.069847
v -2.337767 3.199809 -0.064530
v -2.337767 3.222469 -0.049389
v -2.337767 3.237610 -0.026729
v -2.337767 3.242927 -0.000000
v -2.337767 3.237610 0.026729
v -2.337767 3.222469 0.049389
v -2.337767 3.199809 0.064530
v -2.337767 3.173080 0.069847
v -2.337767 3.146351 0.064530
v -2.337767 3.123691 0.049389
v -2.337767 3.108550 0.026729
v -2.337767 3.103233 -0.000000
v -2.337767 3.108550 -0.026729
v -2.337767 3.123691 -0.049389
v -2.337767 3.146351 -0.064530
v -2.349471 3.173080 -0.000000
v -2.349471 3.176752 -0.008864
v -2.344713 3.190564 -0.042211
v -2.344713 3.173080 -0.045689
v -2.349471 3.173080 -0.009595
v -2.349471 3.179864 -0.006784
v -2.344713 3.205387 -0.032307
v -2.349471 3.181944 -0.003672
v -2.344713 3.215291 -0.017485
v -2.349471 3.182675 0.000000
v -2.344713 3.218769 -0.000000
v -2.349471 3.181944 0.003672
v -2.344713 3.215291 0.017485
v -2.349471 3.179864 0.006784
v -2.344713 3.205387 0.032307
v -2.349471 3.176752 0.008864
v -2.344713 3.190564 0.042211
v -2.349471 3.173080 0.009595
v -2.344713 3.173080 0.045689
v -2.349471 3.169408 0.008864
v -2.344713 3.155596 0.042211
v -2.349471 3.166296 0.006784
v -2.344713 3.140773 0.032307
v -2.349471 3.164216 0.003672
v -2.344713 3.130869 0.017485
v -2.349471 3.163485 0.000000
v -2.344713 3.127391 -0.000000
v -2.349471 3.164216 -0.003672
v -2.344713 3.130869 -0.017485
v -2.349471 3.166296 -0.006784
v -2.344713 3.140773 -0.032307
v -2.349471 3.169408 -0.008864
v -2.344713 3.155596 -0.042211
vn -0.9611 -0.0000 -0.2763
vn -0.9611 0.1057 -0.2553
vn -0.9611 0.1954 -0.1954
vn -0.9611 0.2553 -0.1057
vn -0.9611 0.2763 -0.0000
vn -0.9611 0.2553 0.1057
vn -0.9611 0.1954 0.1954
vn -0.9611 0.1057 0.2553
vn -0.9611 -0.0000 0.2763
vn -0.9611 -0.1057 0.2553
vn -0.9611 -0.1954 0.1954
vn -0.9611 -0.2553 0.1057
vn -0.9611 -0.2763 -0.0000
vn -0.9611 -0.2553 -0.1057
vn -0.9611 -0.1954 -0.1954
vn -0.9611 -0.1057 -0.2553
vn -1.0000 -0.0000 -0.0000
vn -0.9973 0.0282 -0.0680
vn -0.9771 0.0815 -0.1967
vn -0.9771 -0.0000 -0.2129
vn -0.9973 -0.0000 -0.0736
vn -0.9973 0.0521 -0.0521
vn -0.9771 0.1506 -0.1506
vn -0.9973 0.0680 -0.0282
vn -0.9771 0.1967 -0.0815
vn -0.9973 0.0736 -0.0000
vn -0.9771 0.2129 -0.0000
vn -0.9973 0.0680 0.0282
vn -0.9771 0.1967 0.0815
vn -0.9973 0.0521 0.0521
vn -0.9771 0.1506 0.1506
vn -0.9973 0.0282 0.0680
vn -0.9771 0.0815 0.1967
vn -0.9973 -0.0000 0.0736
vn -0.9771 -0.0000 0.2129
vn -0.9973 -0.0282 0.0680
vn -0.9771 -0.0815 0.1967
vn -0.9973 -0.0521 0.0521
vn -0.9771 -0.1506 0.1506
vn -0.9973 -0.0680 0.0282
vn -0.9771 -0.1967 0.0815
vn -0.9973 -0.0736 -0.0000
vn -0.9771 -0.2129 -0.0000
vn -0.9973 -0.0680 -0.0282
vn -0.9771 -0.1967 -0.0815
vn -0.9973 -0.0521 -0.0521
vn -0.9771 -0.1506 -0.1506
vn -0.9973 -0.0282 -0.0680
vn -0.9771 -0.0815 -0.1967
vt 0.000000 0.000000
s 1
f 139/21/110 143/21/114 123/21/94 122/21/93
f 142/21/113 138/21/109 137/21/108
f 169/21/140 140/21/111 121/21/92 136/21/107
f 145/21/116 147/21/118 125/21/96 124/21/95
f 147/21/118 149/21/120 126/21/97 125/21/96
f 149/21/120 151/21/122 127/21/98 126/21/97
f 151/21/122 153/21/124 128/21/99 127/21/98
f 153/21/124 155/21/126 129/21/100 128/21/99
f 155/21/126 157/21/128 130/21/101 129/21/100
f 157/21/128 159/21/130 131/21/102 130/21/101
f 159/21/130 161/21/132 132/21/103 131/21/102
f 161/21/132 163/21/134 133/21/104 132/21/103
f 163/21/134 165/21/136 134/21/105 133/21/104
f 165/21/136 167/21/138 135/21/106 134/21/105
f 167/21/138 169/21/140 136/21/107 135/21/106
f 143/21/114 145/21/116 124/21/95 123/21/94
f 139/21/110 140/21/111 141/21/112 138/21/109
f 143/21/114 139/21/110 138/21/109 142/21/113
f 145/21/116 143/21/114 142/21/113 144/21/115
f 147/21/118 145/21/116 144/21/115 146/21/117
f 149/21/120 147/21/118 146/21/117 148/21/119
f 151/21/122 149/21/120 148/21/119 150/21/121
f 153/21/124 151/21/122 150/21/121 152/21/123
f 155/21/126 153/21/124 152/21/123 154/21/125
f 157/21/128 155/21/126 154/21/125 156/21/127
f 159/21/130 157/21/128 156/21/127 158/21/129
f 161/21/132 159/21/130 158/21/129 160/21/131
f 163/21/134 161/21/132 160/21/131 162/21/133
f 165/21/136 163/21/134 162/21/133 164/21/135
f 167/21/138 165/21/136 164/21/135 166/21/137
f 169/21/140 167/21/138 166/21/137 168/21/139
f 140/21/111 169/21/140 168/21/139 141/21/112
f 140/21/111 139/21/110 122/21/93 121/21/92
f 152/21/123 150/21/121 137/21/108
f 162/21/133 160/21/131 137/21/108
f 148/21/119 146/21/117 137/21/108
f 158/21/129 156/21/127 137/21/108
f 168/21/139 166/21/137 137/21/108
f 144/21/115 142/21/113 137/21/108
f 154/21/125 152/21/123 137/21/108
f 164/21/135 162/21/133 137/21/108
f 141/21/112 168/21/139 137/21/108
f 138/21/109 141/21/112 137/21/108
f 150/21/121 148/21/119 137/21/108
f 160/21/131 158/21/129 137/21/108
f 146/21/117 144/21/115 137/21/108
f 156/21/127 154/21/125 137/21/108
f 166/21/137 164/21/135 137/21/108
o Circle.141
v -2.333940 2.956900 -0.066068
v -2.333940 2.982183 -0.061039
v -2.333940 3.003617 -0.046717
v -2.333940 3.017939 -0.025283
v -2.333940 3.022968 -0.000000
v -2.333940 3.017939 0.025283
v -2.333940 3.003617 0.046717
v -2.333940 2.982183 0.061039
v -2.333940 2.956900 0.066068
v -2.333940 2.931617 0.061039
v -2.333940 2.910183 0.046717
v -2.333940 2.895861 0.025283
v -2.333940 2.890832 -0.000000
v -2.333940 2.895861 -0.025283
v -2.333940 2.910183 -0.046717
v -2.333940 2.931617 -0.061039
v -2.345010 2.956900 -0.000000
v -2.345010 2.960373 -0.008385
v -2.340509 2.973439 -0.039928
v -2.340509 2.956900 -0.043217
v -2.345010 2.956900 -0.009076
v -2.345010 2.963317 -0.006417
v -2.340509 2.987459 -0.030559
v -2.345010 2.965285 -0.003473
v -2.340509 2.996828 -0.016539
v -2.345010 2.965976 0.000000
v -2.340509 3.000117 -0.000000
v -2.345010 2.965285 0.003473
v -2.340509 2.996828 0.016539
v -2.345010 2.963317 0.006417
v -2.340509 2.987459 0.030559
v -2.345010 2.960373 0.008385
v -2.340509 2.973439 0.039928
v -2.345010 2.956900 0.009076
v -2.340509 2.956900 0.043217
v -2.345010 2.953427 0.008385
v -2.340509 2.940361 0.039928
v -2.345010 2.950483 0.006417
v -2.340509 2.926341 0.030559
v -2.345010 2.948515 0.003473
v -2.340509 2.916972 0.016539
v -2.345010 2.947824 0.000000
v -2.340509 2.913682 -0.000000
v -2.345010 2.948515 -0.003473
v -2.340509 2.916972 -0.016539
v -2.345010 2.950483 -0.006417
v -2.340509 2.926341 -0.030559
v -2.345010 2.953427 -0.008385
v -2.340509 2.940361 -0.039928
vn -0.9611 -0.0000 -0.2763
vn -0.9611 0.1057 -0.2553
vn -0.9611 0.1954 -0.1954
vn -0.9611 0.2553 -0.1057
vn -0.9611 0.2763 -0.0000
vn -0.9611 0.2553 0.1057
vn -0.9611 0.1954 0.1954
vn -0.9611 0.1057 0.2553
vn -0.9611 -0.0000 0.2763
vn -0.9611 -0.1057 0.2553
vn -0.9611 -0.1954 0.1954
vn -0.9611 -0.2553 0.1057
vn -0.9611 -0.2763 -0.0000
vn -0.9611 -0.2553 -0.1057
vn -0.9611 -0.1954 -0.1954
vn -0.9611 -0.1057 -0.2553
vn -1.0000 -0.0000 -0.0000
vn -0.9973 0.0282 -0.0680
vn -0.9771 0.0815 -0.1967
vn -0.9771 -0.0000 -0.2129
vn -0.9973 -0.0000 -0.0736
vn -0.9973 0.0521 -0.0521
vn -0.9771 0.1506 -0.1506
vn -0.9973 0.0680 -0.0282
vn -0.9771 0.1967 -0.0815
vn -0.9973 0.0736 -0.0000
vn -0.9771 0.2129 -0.0000
vn -0.9973 0.0680 0.0282
vn -0.9771 0.1967 0.0815
vn -0.9973 0.0521 0.0521
vn -0.9771 0.1506 0.1506
vn -0.9973 0.0282 0.0680
vn -0.9771 0.0815 0.1967
vn -0.9973 -0.0000 0.0736
vn -0.9771 -0.0000 0.2129
vn -0.9973 -0.0282 0.0680
vn -0.9771 -0.0815 0.1967
vn -0.9973 -0.0521 0.0521
vn -0.9771 -0.1506 0.1506
vn -0.9973 -0.0680 0.0282
vn -0.9771 -0.1967 0.0815
vn -0.9973 -0.0736 -0.0000
vn -0.9771 -0.2129 -0.0000
vn -0.9973 -0.0680 -0.0282
vn -0.9771 -0.1967 -0.0815
vn -0.9973 -0.0521 -0.0521
vn -0.9771 -0.1506 -0.1506
vn -0.9973 -0.0282 -0.0680
vn -0.9771 -0.0815 -0.1967
vt 0.000000 0.000000
s 1
f 188/22/159 192/22/163 172/22/143 171/22/142
f 191/22/162 187/22/158 186/22/157
f 218/22/189 189/22/160 170/22/141 185/22/156
f 194/22/165 196/22/167 174/22/145 173/22/144
f 196/22/167 198/22/169 175/22/146 174/22/145
f 198/22/169 200/22/171 176/22/147 175/22/146
f 200/22/171 202/22/173 177/22/148 176/22/147
f 202/22/173 204/22/175 178/22/149 177/22/148
f 204/22/175 206/22/177 179/22/150 178/22/149
f 206/22/177 208/22/179 180/22/151 179/22/150
f 208/22/179 210/22/181 181/22/152 180/22/151
f 210/22/181 212/22/183 182/22/153 181/22/152
f 212/22/183 214/22/185 183/22/154 182/22/153
f 214/22/185 216/22/187 184/22/155 183/22/154
f 216/22/187 218/22/189 185/22/156 184/22/155
f 192/22/163 194/22/165 173/22/144 172/22/143
f 188/22/159 189/22/160 190/22/161 187/22/158
f 192/22/163 188/22/159 187/22/158 191/22/162
f 194/22/165 192/22/163 191/22/162 193/22/164
f 196/22/167 194/22/165 193/22/164 195/22/166
f 198/22/169 196/22/167 195/22/166 197/22/168
f 200/22/171 198/22/169 197/22/168 199/22/170
f 202/22/173 200/22/171 199/22/170 201/22/172
f 204/22/175 202/22/173 201/22/172 203/22/174
f 206/22/177 204/22/175 203/22/174 205/22/176
f 208/22/179 206/22/177 205/22/176 207/22/178
f 210/22/181 208/22/179 207/22/178 209/22/180
f 212/22/183 210/22/181 209/22/180 211/22/182
f 214/22/185 212/22/183 211/22/182 213/22/184
f 216/22/187 214/22/185 213/22/184 215/22/186
f 218/22/189 216/22/187 215/22/186 217/22/188
f 189/22/160 218/22/189 217/22/188 190/22/161
f 189/22/160 188/22/159 171/22/142 170/22/141
f 201/22/172 199/22/170 186/22/157
f 211/22/182 209/22/180 186/22/157
f 197/22/168 195/22/166 186/22/157
f 207/22/178 205/22/176 186/22/157
f 217/22/188 215/22/186 186/22/157
f 193/22/164 191/22/162 186/22/157
f 203/22/174 201/22/172 186/22/157
f 213/22/184 211/22/182 186/22/157
f 190/22/161 217/22/188 186/22/157
f 187/22/158 190/22/161 186/22/157
f 199/22/170 197/22/168 186/22/157
f 209/22/180 207/22/178 186/22/157
f 195/22/166 193/22/164 186/22/157
f 205/22/176 203/22/174 186/22/157
f 215/22/186 213/22/184 186/22/157
o s060_body.005
v -2.167342 3.022998 -0.595063
v -2.167342 2.836732 -0.595063
v -2.167342 2.836732 -0.570325
v -2.167342 3.022998 -0.570325
vn -1.0000 -0.0000 -0.0000
vt 0.592595 0.898259
vt 0.592595 0.929654
vt 0.592595 0.926359
vt 0.592595 0.901553
s 1
f 219/23/190 220/24/190 221/25/190 222/26/190
