# Blender 4.5.3 LTS
# www.blender.org
o Circle.184
v -2.418523 0.999904 -0.677133
v -2.418523 1.103863 -0.750578
v -2.418523 1.132068 -0.881229
v -2.418523 1.056012 -0.991142
v -2.418523 0.931860 -1.019213
v -2.418523 0.838242 -0.968347
v -2.418523 0.787377 -0.874729
v -2.418523 0.815448 -0.750578
v -2.418523 0.893947 -0.688300
v -2.444835 0.935150 -0.723737
v -2.444835 1.026001 -0.739364
v -2.444835 1.084524 -0.822096
v -2.444835 1.064096 -0.916719
v -2.444835 1.007244 -0.961823
v -2.444835 0.939525 -0.971705
v -2.444835 0.853797 -0.917667
v -2.444835 0.836678 -0.817784
v -2.444835 0.871723 -0.759002
v -2.444835 0.987450 -0.674656
v -2.444835 1.105820 -0.749270
v -2.444835 1.129760 -0.880770
v -2.444835 1.057319 -0.993099
v -2.444835 0.959655 -1.018638
v -2.444835 0.863298 -0.991142
v -2.444835 0.789854 -0.887183
v -2.444835 0.801021 -0.781226
v -2.444835 0.863299 -0.702727
v -2.686535 0.959655 -0.724627
v -2.686597 1.007838 -0.734881
v -2.705576 1.015537 -0.756836
v -2.686597 1.047052 -0.761849
v -2.697758 1.068318 -0.801925
v -2.687128 1.081547 -0.845766
v -2.706015 1.062438 -0.867918
v -2.686014 1.072549 -0.894176
v -2.698403 1.037004 -0.936145
v -2.687128 1.005222 -0.959995
v -2.697140 0.957146 -0.965368
v -2.687128 0.911930 -0.959100
v -2.705759 0.901224 -0.934382
v -2.686597 0.872259 -0.932019
v -2.699344 0.849844 -0.886775
v -2.686014 0.837276 -0.846491
v -2.686720 0.847311 -0.800399
v -2.705771 0.871035 -0.787720
v -2.686597 0.872259 -0.761849
v -2.686597 0.911472 -0.734881
v -2.718663 0.932437 -0.781223
v -2.706015 0.939709 -0.743945
v -2.784677 0.921233 -0.791756
v -2.795151 0.903596 -0.814746
v -2.793731 0.896064 -0.861540
v -2.809099 0.921597 -0.871830
v -2.794297 0.924049 -0.900993
v -2.792237 0.959655 -0.911711
v -2.794240 0.997062 -0.900239
v -2.793542 1.019632 -0.869738
v -2.794297 1.023058 -0.833886
v -2.793184 0.997223 -0.793420
v -2.794814 0.954208 -0.782982
v -2.809106 0.951430 -0.802198
v -2.809173 0.951918 -0.891758
v -2.809449 0.921684 -0.822716
v -2.807877 0.913095 -0.837673
v -2.807704 0.986071 -0.886469
v -2.808733 1.004869 -0.857618
v -2.808870 0.999022 -0.822947
v -2.809306 0.977268 -0.806559
v -2.464861 0.925549 -0.824145
v -2.464861 0.921354 -0.862799
v -2.464861 0.959655 -0.889331
v -2.464861 1.001730 -0.855303
v -2.464861 0.970632 -0.804842
v -2.439947 1.093174 -0.751026
v -2.472628 0.894358 -0.731089
v -2.472628 0.876734 -0.751975
v -2.472628 0.853544 -0.731089
v -2.472628 0.873951 -0.710891
v -2.439946 0.884155 -0.748762
v -2.439946 0.893431 -0.723056
v -2.439946 0.856459 -0.741188
v -2.439946 0.863748 -0.713416
v -2.472628 0.833712 -0.915146
v -2.472628 0.864697 -0.929855
v -2.472628 0.832765 -0.951770
v -2.439946 0.854856 -0.913506
v -2.439946 0.853909 -0.950130
v -2.439946 0.822924 -0.935421
v -2.472627 1.025880 -0.954746
v -2.472627 1.064491 -0.951733
v -2.472627 1.045359 -0.982977
v -2.439946 1.028663 -0.949926
v -2.439946 1.062851 -0.952680
v -2.439946 1.045359 -0.984870
v -2.472627 1.075501 -0.781637
v -2.472628 1.055303 -0.761230
v -2.472627 1.075501 -0.740823
v -2.472627 1.095698 -0.761230
v -2.439946 1.057828 -0.771433
v -2.439946 1.085600 -0.778721
v -2.439946 1.065402 -0.743738
v -2.736145 0.903770 -0.809593
v -2.714673 0.894207 -0.803203
v -2.718663 0.888530 -0.846934
v -2.734365 0.903516 -0.884856
v -2.714533 0.894395 -0.891436
v -2.735184 0.945301 -0.912626
v -2.714378 0.945053 -0.924693
v -2.720384 0.997635 -0.907636
v -2.714340 1.025347 -0.890828
v -2.719737 1.030795 -0.855816
v -2.734272 1.016324 -0.809069
v -2.714673 1.025103 -0.803203
v -2.735184 0.971533 -0.780750
v -2.714348 0.975665 -0.769420
v -2.418523 0.919407 0.677133
v -2.418523 1.051263 0.698406
v -2.418523 1.118289 0.781226
v -2.418523 1.129457 0.887183
v -2.418523 1.056012 0.991142
v -2.418523 0.931860 1.019213
v -2.418523 0.838242 0.968347
v -2.418523 0.789551 0.880770
v -2.418523 0.811127 0.755327
v -2.444835 0.959655 0.722579
v -2.444835 1.029441 0.742493
v -2.444835 1.082632 0.817784
v -2.444835 1.067225 0.913280
v -2.444835 1.007244 0.961823
v -2.444835 0.939525 0.971705
v -2.444835 0.871723 0.934867
v -2.444835 0.836458 0.871439
v -2.444835 0.844766 0.799345
v -2.444835 0.889870 0.742493
v -2.444835 0.959655 0.675230
v -2.444835 1.061821 0.705461
v -2.444835 1.129760 0.813098
v -2.444835 1.108183 0.938541
v -2.444835 0.993950 1.019347
v -2.444835 0.863298 0.991142
v -2.444835 0.801021 0.912642
v -2.444835 0.789854 0.806685
v -2.444835 0.863299 0.702727
v -2.671717 1.007244 0.732045
v -2.672364 1.067099 0.780666
v -2.672364 1.082488 0.876050
v -2.672364 1.025923 0.954378
v -2.671717 0.959655 0.971289
v -2.674051 0.888023 0.949925
v -2.670759 0.834604 0.870160
v -2.672369 0.855338 0.777231
v -2.674107 0.932830 0.723526
v -2.797061 0.925103 0.795222
v -2.798075 0.899323 0.836540
v -2.808701 0.920623 0.873250
v -2.798399 0.917747 0.893425
v -2.798399 0.986570 0.903443
v -2.797707 1.020270 0.856714
v -2.797707 1.009431 0.810988
v -2.808899 0.950698 0.800810
v -2.807663 0.969946 0.798785
v -2.808788 0.913486 0.837751
v -2.808862 0.950493 0.892993
v -2.808677 0.927398 0.813776
v -2.808693 0.985831 0.886109
v -2.808748 1.005844 0.855918
v -2.808702 0.998687 0.820618
v -2.439946 0.863748 0.713416
v -2.439946 0.884155 0.713416
v -2.439946 0.826137 0.942842
v -2.439946 0.826137 0.922435
v -2.439946 1.055563 0.980452
v -2.439946 1.035156 0.980452
v -2.439946 1.075501 0.740823
v -2.439946 1.093174 0.771433
vn -0.0037 -0.2722 0.9622
vn 0.1387 -0.5486 0.8245
vn -0.1387 -0.8245 0.5486
vn -0.0010 -0.7836 -0.6213
vn 0.1500 -0.5476 -0.8232
vn -0.1239 -0.1709 -0.9775
vn -1.0000 -0.0000 -0.0000
vn 0.0032 -0.1806 0.9835
vn -0.3721 0.0223 0.9279
vn -0.3803 -0.3774 0.8444
vn 0.0062 0.9816 0.1909
vn -0.3450 0.9385 0.0146
vn -0.5510 0.7613 0.3419
vn -0.2532 0.7954 0.5506
vn -0.4262 0.5166 0.7426
vn -0.2513 0.1747 0.9520
vn -0.8109 0.1265 0.5713
vn -0.8187 -0.1100 0.5636
vn -0.8226 0.2921 0.4878
vn -0.8003 0.5073 0.3195
vn -0.3702 0.3303 0.8682
vn -0.3329 0.6784 0.6550
vn -0.8175 0.5639 -0.1170
vn -0.3340 0.8592 -0.3875
vn -0.9188 0.3328 -0.2124
vn -0.5610 0.5527 -0.6164
vn -0.6406 0.4061 -0.6518
vn -0.8039 -0.0722 -0.5904
vn -0.5435 0.0067 -0.8394
vn -0.8301 -0.3125 -0.4618
vn -0.3385 -0.3599 -0.8694
vn -0.8081 -0.4862 -0.3326
vn -0.3372 -0.6851 -0.6457
vn 0.0060 0.5512 0.8343
vn -0.6479 -0.3069 0.6972
vn -0.6278 -0.7784 0.0010
vn -0.4380 -0.8797 -0.1851
vn -0.2488 -0.7830 -0.5700
vn -0.4432 -0.5089 -0.7379
vn -0.2642 -0.1890 -0.9458
vn -0.6609 0.7435 -0.1025
vn -0.4329 0.8344 -0.3411
vn -0.4536 0.8674 0.2046
vn -0.4685 -0.7667 0.4389
vn -0.3199 -0.4986 0.8057
vn -0.4740 -0.0457 0.8793
vn -0.9904 -0.0913 0.1041
vn -0.9845 0.1741 0.0208
vn -0.8832 -0.4665 0.0482
vn -0.9647 -0.2630 -0.0149
vn -0.9875 -0.0879 0.1305
vn -0.9535 -0.2385 -0.1845
vn -0.9767 0.2135 0.0227
vn -0.5938 -0.1707 -0.7863
vn -0.9698 -0.0135 -0.2437
vn -0.0176 0.9086 0.4174
vn -0.6082 0.6570 -0.4455
vn -0.0735 0.0518 0.9960
vn -0.0839 -0.0225 0.9962
vn -0.1550 -0.7022 0.6949
vn -0.0842 -0.9963 0.0154
vn -0.0927 -0.9948 -0.0419
vn -0.1675 -0.6598 -0.7325
vn -0.0694 0.9949 -0.0732
vn -0.6024 0.7975 0.0333
vn -0.8736 0.3424 0.3459
vn -0.5870 -0.3860 -0.7117
vn 0.0330 -0.8257 -0.5631
vn -0.8298 -0.5578 0.0144
vn 0.0084 0.0644 -0.9979
vn -0.8108 0.3312 -0.4826
vn 0.2068 0.4665 0.8600
vn -0.0330 0.8257 0.5631
vn -0.0084 -0.0644 0.9979
vn -0.5639 0.7154 0.4126
vn -0.5484 0.0006 -0.8362
vn -0.5497 -0.7587 0.3496
vn -0.0735 -0.0518 -0.9960
vn -0.5931 0.0182 -0.8049
vn -0.8619 0.3604 -0.3567
vn -0.2190 -0.8372 0.5011
vn -0.7981 -0.5111 0.3190
vn -0.6208 -0.7747 0.1206
vn -0.2437 0.8272 -0.5062
vn 0.0305 0.9737 -0.2258
vn 0.0144 0.5411 -0.8408
vn 0.2258 -0.9536 -0.1990
vn -0.2086 -0.8147 -0.5410
vn -0.1523 -0.9722 0.1777
vn -0.2258 0.9536 0.1990
vn 0.2055 0.8147 0.5423
vn -0.2357 0.5533 0.7990
vn 0.2309 -0.5621 -0.7942
vn -0.1495 -0.2218 -0.9636
vn 0.2412 0.2042 0.9488
vn -0.2466 -0.1791 0.9524
vn 0.1493 -0.5355 0.8312
vn 0.0674 -0.7683 0.6365
vn -0.0010 0.8739 -0.4862
vn 0.1327 0.9737 -0.1853
vn -0.2397 -0.2038 -0.9492
vn 0.0132 -0.0244 -0.9996
vn 0.0184 -0.5566 -0.8306
vn -0.2430 0.9444 0.2214
vn 0.0249 0.8626 0.5052
vn 0.0061 -0.9188 -0.3947
vn -0.2232 -0.8184 -0.5296
vn -0.2322 0.5338 0.8131
vn 0.0126 0.4128 0.9107
vn -0.2417 -0.5679 0.7868
vn 0.0055 -0.6981 0.7160
vn 0.0076 -0.1473 0.9891
vn -0.8762 -0.0671 -0.4773
vn -0.6224 -0.4107 -0.6663
vn -0.9245 -0.2873 -0.2504
vn -0.6418 -0.5031 0.5788
vn -0.8510 -0.0836 0.5185
vn -0.9176 -0.3611 0.1663
vn -0.6371 0.3061 0.7074
vn -0.9239 0.2568 0.2838
vn -0.6081 0.6529 -0.4517
vn -0.8234 0.1486 -0.5476
vn -0.9249 0.3233 -0.2002
vn -0.6156 -0.7812 -0.1036
vn -0.2169 -0.9593 0.1807
vn 0.0037 -0.9622 0.2722
vn -0.0246 -0.9555 -0.2939
vn 0.0246 -0.9953 -0.0941
vn 0.0828 0.5717 -0.8163
vn -0.0000 0.9808 -0.1951
vn 0.0826 0.5724 -0.8158
vn 0.0408 0.1113 -0.9930
vn -0.0780 0.1048 0.9914
vn -0.0680 0.3099 0.9484
vn -0.0274 0.8309 0.5557
vn -0.3745 -0.9269 0.0264
vn -0.5750 -0.7791 -0.2496
vn 0.0067 -0.8269 -0.5623
vn -0.0010 -0.9841 0.1776
vn -0.0006 0.8456 -0.5339
vn -0.3713 -0.6373 0.6753
vn -0.3931 -0.8630 0.3174
vn -0.0020 -0.7038 0.7104
vn -0.0105 0.3866 -0.9222
vn -0.3315 0.3497 -0.8763
vn -0.0019 -0.2088 -0.9780
vn -0.8052 -0.4999 0.3190
vn -0.4097 0.0017 -0.9122
vn -0.4453 0.5039 -0.7401
vn -0.9063 0.2301 -0.3545
vn -0.0130 -0.0217 0.9997
vn -0.6526 -0.6356 -0.4124
vn 0.0839 -0.8740 -0.4786
vn 0.0839 0.8740 0.4786
vn 0.1550 0.9529 -0.2606
vn 0.0735 0.8366 0.5428
vn 0.1550 -0.9529 0.2606
vn 0.0694 0.5608 -0.8250
vn 0.0854 0.4618 -0.8829
vn 0.0927 -0.4611 0.8825
vn 0.1675 0.3045 0.9377
vn 0.0842 -0.5115 0.8552
vn 0.0592 0.0005 -0.9982
vn -0.0063 -0.8165 0.5773
vn 0.1529 -0.2607 -0.9532
vn 0.3088 -0.5382 0.7842
vn 0.2995 0.9538 -0.0247
vn -0.0592 0.8648 0.4985
vn 0.0418 0.4640 -0.8849
vn 0.0240 0.1237 -0.9920
vn -0.0147 0.6358 -0.7717
vn -0.0674 -0.8821 0.4663
vn -0.0113 -0.9816 0.1906
vn -0.2310 -0.0212 0.9727
vn -0.2350 0.3773 -0.8958
vn -0.9101 -0.4092 -0.0652
vn -0.9144 0.3945 0.0907
vn -0.6091 0.7781 0.1534
vt 0.252023 0.792699
vt 0.250199 0.790377
vt 0.252023 0.785734
vt 0.252023 0.843782
vt 0.250199 0.841460
vt 0.252023 0.836376
vt 0.018306 0.839176
vt 0.022945 0.840280
vt 0.020782 0.844835
vt 0.023113 0.849621
vt 0.018306 0.851132
vt 0.016795 0.855938
vt 0.012328 0.853608
vt 0.007861 0.855939
vt 0.007539 0.852321
vt 0.014010 0.836699
vt 0.016795 0.834369
vt 0.064363 0.986241
vt 0.076747 0.980099
vt 0.077899 0.982556
vt 0.061015 0.972612
vt 0.074547 0.969967
vt 0.075386 0.972451
vt 0.079997 0.972914
vt 0.084664 0.973765
vt 0.081232 0.977094
vt 0.079469 0.977514
vt 0.078709 0.980635
vt 0.077027 0.976161
vt 0.078243 0.973158
vt 0.075862 0.977599
vt 0.075187 0.975075
vt 0.076004 0.968634
vt 0.074481 0.967369
vt 0.077980 0.966317
vt 0.075472 0.964350
vt 0.079402 0.963619
vt 0.079704 0.959469
vt 0.076433 0.959626
vt 0.078928 0.956125
vt 0.076798 0.956767
vt 0.082170 0.954945
vt 0.078019 0.954028
vt 0.062353 0.979881
vt 0.081533 0.980562
vt 0.085294 0.952383
vt 0.089087 0.957886
vt 0.083803 0.956112
vt 0.086596 0.960599
vt 0.081527 0.960040
vt 0.078667 0.969269
vt 0.084092 0.967933
vt 0.084117 0.970516
vt 0.088161 0.979735
vt 0.086379 0.978767
vt 0.085824 0.976547
vt 0.087172 0.962884
vt 0.088945 0.960300
vt 0.090831 0.958724
vt 0.085830 0.971809
vt 0.085557 0.968800
vt 0.086400 0.974040
vt 0.051868 0.299607
vt 0.054133 0.298551
vt 0.055194 0.299202
vt 0.129495 0.975262
vt 0.128685 0.997406
vt 0.127328 0.975262
vt 0.140976 0.975262
vt 0.139903 0.997406
vt 0.139248 0.975262
vt 0.124586 0.975262
vt 0.125264 0.997406
vt 0.123638 0.997406
vt 0.717862 0.554411
vt 0.720636 0.553978
vt 0.720636 0.554845
vt 0.264462 0.173377
vt 0.265279 0.175993
vt 0.263646 0.175993
vt 0.253845 0.173855
vt 0.256280 0.173377
vt 0.256280 0.175351
vt 0.247332 0.174035
vt 0.249767 0.175172
vt 0.247332 0.176010
vt 0.267734 0.175993
vt 0.266918 0.173377
vt 0.269071 0.173377
vt 0.261190 0.175993
vt 0.260374 0.173377
vt 0.262415 0.173377
vt 0.000655 0.297581
vt 0.002493 0.296520
vt 0.002660 0.298546
vt 0.171349 0.802369
vt 0.170642 0.800104
vt 0.172057 0.800104
vt 0.084558 0.982602
vt 0.086214 0.985908
vt 0.083190 0.983911
vt 0.070009 0.912750
vt 0.072195 0.911499
vt 0.074579 0.913408
vt 0.073163 0.916569
vt 0.070008 0.915666
vt 0.074111 0.973697
vt 0.061053 0.972947
vt 0.062273 0.979557
vt 0.250199 0.781530
vt 0.252023 0.785293
vt 0.252023 0.778768
vt 0.252023 0.818681
vt 0.250199 0.822445
vt 0.252023 0.827528
vt 0.250199 0.790377
vt 0.252023 0.794581
vt 0.250199 0.832172
vt 0.250199 0.841460
vt 0.252023 0.811275
vt 0.250199 0.813596
vt 0.004640 0.848684
vt 0.004074 0.853408
vt 0.003874 0.843472
vt 0.000655 0.845154
vt 0.008267 0.834201
vt 0.006350 0.839176
vt 0.010646 0.836699
vt 0.076580 0.981811
vt 0.063749 0.984604
vt 0.065645 0.989507
vt 0.073680 0.968427
vt 0.060684 0.965799
vt 0.067815 0.994361
vt 0.079398 0.986812
vt 0.074127 0.963029
vt 0.061065 0.960005
vt 0.076570 0.954863
vt 0.063488 0.949066
vt 0.061972 0.954875
vt 0.087353 0.976112
vt 0.087200 0.978056
vt 0.088570 0.977976
vt 0.087396 0.960295
vt 0.087172 0.962884
vt 0.088945 0.960300
vt 0.085082 0.964915
vt 0.086040 0.965820
vt 0.084706 0.972189
vt 0.086141 0.974440
vt 0.090223 0.957518
vt 0.079886 0.948941
vt 0.089685 0.980522
vt 0.250199 0.783412
vt 0.250199 0.778768
vt 0.250199 0.827528
vt 0.250199 0.818241
vt 0.252023 0.818241
vt 0.250199 0.834494
vt 0.250199 0.799225
vt 0.252023 0.800105
vt 0.250199 0.808953
vt 0.252023 0.808953
vt 0.250199 0.850308
vt 0.252023 0.851188
vt 0.002432 0.851766
vt 0.010006 0.833481
vt 0.009387 0.837221
vt 0.004518 0.841919
vt 0.003763 0.837211
vt 0.081875 0.948222
vt 0.080729 0.951318
vt 0.064098 0.947257
vt 0.066051 0.941873
vt 0.060692 0.965456
vt 0.079292 0.985019
vt 0.081101 0.987451
vt 0.068465 0.995647
vt 0.066314 0.991135
vt 0.083431 0.990062
vt 0.075197 0.962101
vt 0.081555 0.985196
vt 0.084742 0.988371
vt 0.085252 0.962913
vt 0.084477 0.965448
vt 0.090141 0.981255
vt 0.086040 0.965820
vt 0.090271 0.979471
vt 0.131766 0.975262
vt 0.132852 0.997406
vt 0.050919 0.301895
vt 0.053889 0.305014
vt 0.051699 0.304112
vt 0.134036 0.975262
vt 0.136657 0.997406
vt 0.136631 0.975262
vt 0.011659 0.736366
vt 0.012271 0.738134
vt 0.010434 0.738488
vt 0.009822 0.736719
vt 0.140585 0.924151
vt 0.138150 0.924810
vt 0.138150 0.922835
vt 0.140585 0.922835
vt 0.717862 0.552246
vt 0.717862 0.551379
vt 0.720636 0.551813
vt 0.031878 0.282262
vt 0.033103 0.283484
vt 0.031878 0.285091
vt 0.030653 0.283677
vt 0.140585 0.925468
vt 0.240820 0.175172
vt 0.240820 0.173377
vt 0.243254 0.173377
vt 0.243254 0.174693
vt 0.253845 0.176009
vt 0.266096 0.173377
vt 0.266096 0.175993
vt 0.259032 0.175993
vt 0.257102 0.175993
vt 0.257102 0.173377
vt 0.259255 0.173377
vt 0.243254 0.176010
vt 0.001268 0.245134
vt 0.001101 0.243108
vt 0.003105 0.244073
vt 0.262824 0.175993
vt 0.249767 0.173377
vt 0.269368 0.175993
vt 0.253023 0.175352
vt 0.250589 0.175352
vt 0.250589 0.173377
vt 0.253023 0.173377
vt 0.246510 0.174035
vt 0.246510 0.176010
vt 0.244076 0.176010
vt 0.244076 0.174035
vt 0.252023 0.803869
vt 0.250199 0.797343
vt 0.250199 0.804749
vt 0.250199 0.848426
vt 0.252023 0.850748
vt 0.019495 0.840365
vt 0.020782 0.845154
vt 0.024001 0.845594
vt 0.022225 0.838541
vt 0.250199 0.853069
vt 0.018532 0.850906
vt 0.020583 0.853408
vt 0.012647 0.853608
vt 0.012768 0.856827
vt 0.002432 0.838542
vt 0.015563 0.837343
vt 0.065380 0.943660
vt 0.069420 0.997535
vt 0.082593 0.990872
vt 0.074966 0.959194
vt 0.075051 0.977850
vt 0.085557 0.968800
vt 0.084404 0.968935
vt 0.090271 0.979471
vt 0.050813 0.301783
vt 0.051740 0.304070
vt 0.054009 0.305052
vt 0.056282 0.304105
vt 0.057242 0.302494
vt 0.056992 0.300656
vt 0.055915 0.299145
vt 0.054162 0.298591
vt 0.051809 0.299447
s 1
f 9/1/1 27/2/2 8/3/3
f 6/4/4 24/5/5 5/6/6
f 10/7/7 19/8/7 11/9/7
f 11/9/7 19/8/7 20/10/7
f 11/9/7 20/10/7 12/11/7
f 12/11/7 21/12/7 13/13/7
f 13/13/7 22/14/7 14/15/7
f 18/16/7 27/17/7 10/7/7
f 10/7/7 27/17/7 19/8/7
f 10/18/8 28/19/9 47/20/10
f 12/21/11 33/22/12 32/23/13
f 112/24/14 59/25/15 114/26/16
f 115/27/17 49/28/18 30/29/19
f 115/27/17 30/29/19 113/30/20
f 30/29/19 29/31/21 31/32/22
f 32/23/13 33/22/12 34/33/23
f 34/33/23 33/22/12 35/34/24
f 110/35/25 34/33/23 36/36/26
f 110/35/25 36/36/26 109/37/27
f 108/38/28 38/39/29 40/40/30
f 38/39/29 39/41/31 40/40/30
f 108/38/28 40/40/30 106/42/32
f 40/40/30 39/41/31 41/43/33
f 31/32/22 11/44/34 12/21/11 32/23/13
f 48/45/35 49/28/18 115/27/17
f 104/46/36 52/47/37 105/48/38
f 105/48/38 54/49/39 107/50/40
f 105/48/38 52/47/37 54/49/39
f 111/51/41 57/52/42 58/53/43
f 51/54/44 50/55/45 60/56/46
f 62/57/47 54/49/39 53/58/48
f 53/58/48 52/47/37 64/59/49
f 67/60/50 58/53/43 66/61/51
f 68/62/52 59/25/15 67/60/50
f 53/63/48 64/64/49 63/65/53
f 68/66/52 73/67/54 61/68/55
f 63/69/53 70/70/56 53/71/48
f 63/72/53 69/73/57 70/74/56
f 101/75/58 97/76/59 96/77/60
f 81/78/61 77/79/62 76/80/63
f 80/81/64 75/82/65 78/83/66
f 85/84/67 88/85/68 83/86/69
f 87/87/70 85/88/67 84/89/71
f 86/90/72 84/91/73 83/92/74
f 90/93/75 91/94/76 89/95/77
f 100/96/78 95/97/79 98/98/80
f 102/99/81 104/100/36 103/101/82
f 109/37/27 108/38/28 107/50/40
f 114/26/16 48/45/35 115/27/17
f 48/45/35 50/55/45 102/99/81
f 70/102/7 69/103/57 73/104/54
f 72/105/83 71/106/7 73/104/54
f 71/106/7 70/102/7 73/104/54
f 145/107/84 127/108/85 126/109/86
f 142/110/87 124/111/88 123/112/89
f 119/113/90 138/114/91 120/115/92
f 143/116/93 116/117/94 124/111/88
f 139/118/95 121/6/96 120/115/92
f 140/119/97 122/4/98 121/6/96
f 118/120/99 137/121/100 119/113/90
f 130/122/7 139/123/7 129/15/7
f 131/124/7 140/125/7 130/122/7
f 142/126/7 132/127/7 133/128/7
f 152/129/101 125/130/102 134/131/103
f 146/132/104 128/133/105 127/108/85
f 133/134/106 151/135/107 134/131/103
f 147/136/108 129/137/109 128/133/105
f 149/138/110 131/139/111 130/140/112
f 160/141/113 153/142/114 164/143/115
f 156/144/116 163/145/117 155/146/118
f 163/145/117 157/147/119 165/148/120
f 159/149/121 161/150/122 167/60/123
f 154/151/124 150/152/125 156/144/116
f 153/142/114 151/135/107 154/153/124
f 153/142/114 152/129/101 151/135/107
f 26/154/126 25/155/127 7/112/128 8/3/3
f 22/156/129 21/157/130 3/158/130 4/115/131
f 22/156/129 4/115/131 5/6/6 23/159/132
f 8/3/3 27/2/2 26/154/126
f 19/160/133 27/2/2 9/1/1 1/161/134
f 20/162/135 19/160/133 1/161/134 2/163/135
f 5/6/6 24/5/5 23/159/132
f 25/164/127 24/5/5 6/4/4 7/165/128
f 20/162/135 2/163/135 3/158/130 21/157/130
f 22/14/7 23/166/7 15/122/7 14/15/7
f 12/11/7 20/10/7 21/12/7
f 13/13/7 21/12/7 22/14/7
f 26/167/7 27/17/7 18/16/7 17/168/7
f 15/122/7 23/166/7 24/125/7
f 16/169/7 15/122/7 24/125/7
f 16/169/7 24/125/7 25/170/7
f 17/168/7 16/169/7 25/170/7
f 17/168/7 25/170/7 26/167/7
f 43/171/136 42/172/137 16/173/138 17/174/139
f 16/173/138 42/172/137 41/43/33
f 35/34/24 33/22/12 12/21/11 13/175/140
f 46/176/141 44/177/142 17/178/139 18/179/143
f 17/178/139 44/177/142 43/180/136
f 13/175/140 36/36/26 35/34/24
f 36/36/26 13/175/140 14/137/144 37/181/145
f 47/20/10 46/176/141 18/179/143 10/18/8
f 37/181/145 14/137/144 15/140/146 38/39/29
f 39/41/31 15/140/146 16/173/138 41/43/33
f 15/140/146 39/41/31 38/39/29
f 11/44/34 31/32/22 29/31/21
f 28/19/9 29/31/21 30/29/19 49/28/18
f 32/23/13 34/33/23 111/51/41 113/30/20
f 113/30/20 30/29/19 32/23/13
f 32/23/13 30/29/19 31/32/22
f 38/39/29 108/38/28 109/37/27 36/36/26
f 110/35/25 111/51/41 34/33/23
f 36/36/26 34/33/23 35/34/24
f 45/182/147 103/101/82 104/100/36 42/183/137
f 38/39/29 36/36/26 37/181/145
f 106/42/32 40/40/30 42/172/137
f 42/172/137 40/40/30 41/43/33
f 104/46/36 106/42/32 42/172/137
f 43/180/136 44/177/142 45/182/147 42/183/137
f 45/182/147 49/28/18 48/45/35 103/101/82
f 45/182/147 44/177/142 46/176/141
f 47/20/10 49/28/18 45/182/147 46/176/141
f 28/19/9 10/18/8 11/44/34 29/31/21
f 49/28/18 47/20/10 28/19/9
f 60/56/46 50/55/45 48/45/35 114/26/16
f 55/184/148 56/185/149 109/37/27 107/50/40
f 102/99/81 50/55/45 51/54/44
f 114/26/16 59/25/15 60/56/46
f 56/185/149 57/52/42 111/51/41 109/37/27
f 51/54/44 52/186/37 104/100/36 102/99/81
f 112/24/14 111/51/41 58/53/43
f 112/24/14 58/53/43 59/25/15
f 107/50/40 54/49/39 55/184/148
f 51/54/44 60/56/46 61/141/55 63/143/53
f 56/185/149 55/184/148 62/57/47 65/187/150
f 64/188/49 52/186/37 51/54/44
f 53/58/48 54/49/39 52/47/37
f 62/57/47 55/184/148 54/49/39
f 66/61/51 58/53/43 57/52/42
f 67/60/50 59/25/15 58/53/43
f 56/185/149 65/187/150 66/61/51 57/52/42
f 60/56/46 59/25/15 68/62/52 61/141/55
f 73/67/54 68/66/52 67/189/50 72/190/83
f 63/143/53 64/188/49 51/54/44
f 62/191/47 66/192/51 65/193/150
f 67/189/50 66/194/51 72/190/83
f 71/195/151 62/196/47 53/71/48 70/70/56
f 69/73/57 63/72/53 61/68/55 73/67/54
f 71/195/151 72/190/83 66/194/51 62/196/47
f 98/197/80 95/198/79 96/199/152 97/200/7
f 99/201/153 96/202/152 95/203/79 100/204/78
f 74/205/154 100/206/155 98/207/156
f 74/205/154 98/207/156 97/76/59 101/75/58
f 75/208/65 76/209/7 77/210/7 78/211/66
f 99/201/153 101/212/157 96/202/152
f 76/213/158 75/214/65 80/215/64 79/216/159
f 82/217/160 80/81/161 78/83/162
f 82/218/160 78/219/162 77/79/62 81/78/61
f 89/220/77 91/221/76 94/222/163 92/223/164
f 79/216/159 81/224/165 76/213/158
f 83/225/69 84/226/71 85/227/67
f 83/92/74 88/228/166 86/90/72
f 85/84/67 87/229/70 88/85/68
f 86/230/72 87/87/167 84/89/73
f 94/231/163 91/232/76 90/233/75 93/234/168
f 90/235/75 89/236/77 92/237/164 93/238/168
f 106/42/32 105/48/38 107/50/40 108/38/28
f 102/99/81 103/101/82 48/45/35
f 115/27/17 113/30/20 112/24/14 114/26/16
f 105/48/38 106/42/32 104/46/36
f 109/37/27 111/51/41 110/35/25
f 112/24/14 113/30/20 111/51/41
f 117/239/169 116/117/94 135/240/170 136/241/171
f 142/110/87 143/116/93 124/111/88
f 120/115/92 138/114/91 139/118/95
f 118/120/99 117/239/169 136/241/171 137/121/100
f 116/117/94 143/116/93 135/240/170
f 139/118/95 140/119/97 121/6/96
f 141/242/172 123/243/89 122/4/98 140/119/97
f 125/244/7 126/245/7 136/246/7 135/247/7
f 141/242/172 142/248/87 123/243/89
f 119/113/90 137/121/100 138/114/91
f 126/245/7 127/249/7 137/250/7 136/246/7
f 127/249/7 128/251/7 138/252/7 137/250/7
f 128/251/7 129/15/7 139/123/7 138/252/7
f 131/124/7 132/127/7 141/253/7 140/125/7
f 140/125/7 139/123/7 130/122/7
f 142/126/7 133/128/7 134/254/7 143/17/7
f 132/127/7 142/126/7 141/253/7
f 143/17/7 134/254/7 125/244/7 135/247/7
f 150/152/125 132/255/173 131/139/111 149/138/110
f 133/134/106 132/256/173 150/257/125 151/135/107
f 145/107/84 146/132/104 127/108/85
f 130/140/112 129/137/109 147/136/108 148/258/174
f 146/132/104 147/136/108 128/133/105
f 134/131/103 151/135/107 152/129/101
f 144/259/175 126/109/86 125/130/102 152/129/101
f 148/258/174 149/138/110 130/140/112
f 144/259/175 145/107/84 126/109/86
f 155/146/118 162/59/176 154/151/124 156/144/116
f 156/144/116 157/147/119 163/145/117
f 166/260/177 165/148/120 157/147/119 158/261/178
f 167/60/123 166/260/177 158/261/178 159/149/121
f 154/153/124 162/262/176 164/143/115 153/142/114
f 161/150/122 153/142/114 160/141/113
f 163/263/117 165/264/120 166/265/177 167/266/123 161/267/122 160/268/113 164/269/115 162/270/176 155/271/118
f 144/259/175 161/150/122 159/149/121 145/107/84
f 145/107/84 159/149/121 158/261/178 146/132/104
f 146/132/104 158/261/178 157/147/119 147/136/108
f 148/258/174 157/147/119 156/144/116 149/138/110
f 157/147/119 148/258/174 147/136/108
f 156/144/116 150/152/125 149/138/110
f 154/153/124 151/135/107 150/257/125
f 153/142/114 161/150/122 152/129/101
f 161/150/122 144/259/175 152/129/101
l 168 169
l 170 171
l 172 173
l 174 175
