# Blender 4.5.3 LTS
# www.blender.org
o Circle.210
v 0.543253 2.637933 -0.353648
v 0.257510 2.689300 0.208639
v 0.897457 2.720664 0.000202
v 0.765102 2.797450 -0.212372
v 0.853490 2.793317 -0.045235
v 0.797517 2.804535 0.182718
v 0.543395 2.795718 0.309823
v 0.322446 2.797608 0.214445
v 0.232929 2.793214 0.047272
v 0.287404 2.804383 -0.180272
v 0.542407 2.795266 -0.307469
v 0.434462 2.646429 -0.336953
v 0.335795 2.665735 -0.286482
v 0.259269 2.693448 -0.210394
v 0.207772 2.713250 -0.111217
v 0.188783 2.720655 -0.000060
v 0.207153 2.710383 0.110282
v 0.333845 2.660231 0.285621
v 0.433649 2.638963 0.336927
v 0.543084 2.627742 0.353747
v 0.698935 2.645823 0.321520
v 0.826987 2.688717 0.210401
v 0.878369 2.710164 0.111546
v 0.849165 2.699677 -0.185480
v 0.752194 2.666120 -0.285755
v 0.652461 2.646503 -0.336941
v 0.378410 3.290210 -0.083836
v 0.461621 3.288902 0.160185
v 0.708574 3.289886 0.084179
v 0.624725 3.288866 -0.160257
v 0.631251 3.223256 -0.283257
v 0.502047 3.219597 -0.299919
v 0.331407 3.220204 -0.217593
v 0.247034 3.224972 -0.047776
v 0.258035 3.222491 0.086840
v 0.331185 3.220518 0.217026
v 0.454565 3.223391 0.283010
v 0.584303 3.219841 0.299744
v 0.755321 3.220382 0.216989
v 0.839293 3.224981 0.047601
v 0.828221 3.222461 -0.087060
v 0.754866 3.220345 -0.217471
vn 0.0001 0.2816 -0.9595
vn -0.7016 0.4214 0.5747
vn 0.8559 0.5166 0.0232
vn 0.6494 0.2394 -0.7218
vn 0.9495 0.2781 -0.1456
vn 0.7490 0.2329 0.6203
vn 0.0099 0.1978 0.9802
vn -0.6524 0.2291 0.7224
vn -0.9439 0.2928 0.1525
vn -0.7493 0.2425 -0.6162
vn -0.0123 0.2132 -0.9769
vn -0.2844 0.3985 -0.8720
vn -0.4247 0.4351 -0.7940
vn -0.6913 0.3474 -0.6336
vn -0.8141 0.5143 -0.2696
vn -0.8438 0.5347 -0.0460
vn -0.8044 0.4720 0.3608
vn -0.4400 0.3806 0.8134
vn -0.2724 0.3492 0.8966
vn 0.0221 0.2529 0.9672
vn 0.3534 0.3727 0.8580
vn 0.6746 0.3295 0.6605
vn 0.8181 0.5024 0.2798
vn 0.7425 0.4431 -0.5024
vn 0.4382 0.4030 -0.8035
vn 0.2711 0.3783 -0.8851
vn -0.2588 0.9567 -0.1330
vn -0.1246 0.9611 0.2463
vn 0.2598 0.9564 0.1332
vn 0.1249 0.9610 -0.2466
vn 0.2518 0.4922 -0.8333
vn -0.1622 0.4961 -0.8530
vn -0.5924 0.4763 -0.6498
vn -0.8500 0.5057 -0.1473
vn -0.8086 0.5284 0.2589
vn -0.6134 0.4971 0.6137
vn -0.2532 0.4943 0.8316
vn 0.1626 0.4988 0.8513
vn 0.5935 0.4774 0.6480
vn 0.8502 0.5056 0.1465
vn 0.8087 0.5282 -0.2588
vn 0.6130 0.4956 -0.6153
vt 0.029899 0.892429
vt 0.032368 0.900198
vt 0.023369 0.898601
vt 0.019569 0.885517
vt 0.014721 0.894639
vt 0.007021 0.888195
vt 0.015782 0.870602
vt 0.002071 0.879279
vt 0.000691 0.869231
vt 0.058980 0.892411
vt 0.044844 0.889548
vt 0.053837 0.873934
vt 0.065092 0.884571
vt 0.006618 0.856109
vt 0.024662 0.855039
vt 0.039544 0.852068
vt 0.037246 0.844348
vt 0.052262 0.848999
vt 0.049941 0.858894
vt 0.062072 0.856600
vt 0.066772 0.865397
vt 0.067892 0.875162
vt 0.224095 0.871484
vt 0.216499 0.878704
vt 0.213259 0.868690
vt 0.202903 0.873080
vt 0.204768 0.902174
vt 0.212340 0.894957
vt 0.215588 0.904973
vt 0.225933 0.900592
vt 0.041449 0.899942
vt 0.050501 0.897444
vt 0.028135 0.844321
vt 0.018925 0.846667
vt 0.223144 0.889142
vt 0.230284 0.877681
vt 0.232562 0.885804
vt 0.230846 0.894142
vt 0.205696 0.884525
vt 0.198562 0.895998
vt 0.196289 0.887883
vt 0.197990 0.879537
s 1
f 9/1/9 16/2/16 17/3/17
f 8/4/8 2/5/2 18/6/18
f 7/7/7 19/8/19 20/9/20
f 13/10/13 10/11/10 11/12/11 12/13/12
f 7/7/7 21/14/21 6/15/6
f 5/16/5 3/17/3 24/18/24
f 4/19/4 24/18/24 25/20/25
f 11/12/11 26/21/26 1/22/1
f 40/23/40 29/24/29 39/25/39
f 39/25/39 29/24/29 38/26/38
f 34/27/34 27/28/27 33/29/33
f 33/29/33 27/28/27 32/30/32
f 39/25/39 6/15/6 40/23/40
f 33/29/33 10/11/10 34/27/34
f 11/12/11 1/22/1 12/13/12
f 16/2/16 9/1/9 10/11/10 15/31/15
f 10/11/10 13/10/13 14/32/14
f 10/11/10 14/32/14 15/31/15
f 17/3/17 2/5/2 8/4/8 9/1/9
f 18/6/18 19/8/19 7/7/7 8/4/8
f 3/17/3 5/16/5 6/15/6 23/33/23
f 7/7/7 20/9/20 21/14/21
f 6/15/6 21/14/21 22/34/22
f 6/15/6 22/34/22 23/33/23
f 25/20/25 26/21/26 11/12/11 4/19/4
f 4/19/4 5/16/5 24/18/24
f 30/35/30 29/24/29 41/36/41 42/37/42
f 32/30/32 27/28/27 30/35/30
f 31/38/31 32/30/32 30/35/30
f 42/37/42 31/38/31 30/35/30
f 28/39/28 27/28/27 35/40/35 36/41/36
f 40/23/40 41/36/41 29/24/29
f 38/26/38 29/24/29 28/39/28
f 37/42/37 38/26/38 28/39/28
f 36/41/36 37/42/37 28/39/28
f 28/39/28 29/24/29 30/35/30 27/28/27
f 34/27/34 35/40/35 27/28/27
f 5/16/5 4/19/4 42/37/42 41/36/41
f 40/23/40 6/15/6 5/16/5
f 41/36/41 40/23/40 5/16/5
f 11/12/11 31/38/31 42/37/42 4/19/4
f 11/12/11 10/11/10 33/29/33 32/30/32
f 32/30/32 31/38/31 11/12/11
f 9/1/9 8/4/8 36/41/36 35/40/35
f 34/27/34 10/11/10 9/1/9
f 35/40/35 34/27/34 9/1/9
f 7/7/7 37/42/37 36/41/36 8/4/8
f 7/7/7 6/15/6 39/25/39 38/26/38
f 38/26/38 37/42/37 7/7/7
