# Blender 4.5.3 LTS
# www.blender.org
o Circle.152
v 3.974459 0.925820 0.676830
v 3.974459 1.025364 0.688300
v 3.974459 1.103863 0.750578
v 3.974459 1.131934 0.874729
v 3.974459 1.061821 0.988407
v 3.974459 0.931860 1.019213
v 3.974459 0.818182 0.949100
v 3.974459 0.787951 0.846934
v 3.974459 0.818182 0.744769
v 4.000772 0.959655 0.722579
v 4.000772 1.029441 0.742493
v 4.000772 1.082632 0.817784
v 4.000772 1.074545 0.894523
v 4.000772 1.033648 0.949395
v 4.000772 0.939525 0.971705
v 4.000772 0.871723 0.934867
v 4.000772 0.836678 0.876084
v 4.000772 0.844766 0.799345
v 4.000772 0.889870 0.742493
v 4.000772 0.959655 0.675230
v 4.000772 1.061821 0.705461
v 4.000772 1.118289 0.781226
v 4.000772 1.129457 0.887183
v 4.000772 1.051263 0.995462
v 4.000772 0.919407 1.016736
v 4.000772 0.838242 0.968347
v 4.000772 0.789551 0.880770
v 4.000772 0.801021 0.781226
v 4.000772 0.863299 0.702727
v 4.235711 1.007244 0.732045
v 4.234776 1.066322 0.779282
v 4.235711 1.084011 0.846934
v 4.234776 1.062977 0.919592
v 4.235711 1.007244 0.961823
v 4.234776 0.932068 0.970196
v 4.236570 0.854196 0.916602
v 4.238044 0.836178 0.824760
v 4.235711 0.871723 0.759002
v 4.236570 0.934347 0.723101
v 4.362635 0.916813 0.801472
v 4.372782 0.920515 0.873087
v 4.361848 0.899252 0.857685
v 4.361848 0.924546 0.897248
v 4.361894 0.981194 0.906017
v 4.362566 1.022848 0.846934
v 4.372991 0.945657 0.801424
v 4.362899 0.982460 0.789633
v 4.372624 0.914457 0.830736
v 4.372701 0.950479 0.893064
v 4.372775 0.991937 0.811472
v 4.372895 0.990013 0.883666
v 4.372782 1.007041 0.848702
v 3.974459 0.925820 -0.676830
v 3.974459 1.025364 -0.688300
v 3.974459 1.103863 -0.750578
v 3.974459 1.131934 -0.874729
v 3.974459 1.061821 -0.988407
v 3.974459 0.931860 -1.019213
v 3.974459 0.818182 -0.949100
v 3.974459 0.787951 -0.846934
v 3.974459 0.818182 -0.744769
v 4.000772 0.959655 -0.722579
v 4.000772 1.029441 -0.742493
v 4.000772 1.082632 -0.817784
v 4.000772 1.074545 -0.894523
v 4.000772 1.033648 -0.949395
v 4.000772 0.939525 -0.971705
v 4.000772 0.871723 -0.934867
v 4.000772 0.836678 -0.876084
v 4.000772 0.844766 -0.799345
v 4.000772 0.889870 -0.742493
v 4.000772 0.959655 -0.675230
v 4.000772 1.061821 -0.705461
v 4.000772 1.118289 -0.781226
v 4.000772 1.129457 -0.887183
v 4.000772 1.051263 -0.995462
v 4.000772 0.919407 -1.016736
v 4.000772 0.838242 -0.968347
v 4.000772 0.789551 -0.880770
v 4.000772 0.801021 -0.781226
v 4.000772 0.863299 -0.702727
v 4.235711 1.007244 -0.732045
v 4.234776 1.066322 -0.779282
v 4.235711 1.084011 -0.846934
v 4.234776 1.062977 -0.919592
v 4.235711 1.007244 -0.961823
v 4.234776 0.932068 -0.970196
v 4.236570 0.854196 -0.916602
v 4.238044 0.836178 -0.824760
v 4.235711 0.871723 -0.759002
v 4.236570 0.934347 -0.723101
v 4.362635 0.916813 -0.801472
v 4.372782 0.920515 -0.873087
v 4.361848 0.899252 -0.857685
v 4.361848 0.924546 -0.897248
v 4.361894 0.981194 -0.906017
v 4.362566 1.022848 -0.846934
v 4.372991 0.945657 -0.801424
v 4.362899 0.982460 -0.789633
v 4.372624 0.914457 -0.830736
v 4.372701 0.950479 -0.893064
v 4.372775 0.991937 -0.811472
v 4.372895 0.990013 -0.883666
v 4.372782 1.007041 -0.848702
vn -0.0160 0.9781 -0.2073
vn 0.2304 0.8153 -0.5312
vn -0.0152 0.5428 -0.8397
vn 0.1455 -0.2032 -0.9683
vn 0.0800 0.1010 -0.9917
vn -0.2280 -0.5282 -0.8179
vn -0.0827 -0.9916 -0.0989
vn -0.1739 -0.9643 0.1996
vn 0.1134 -0.8130 0.5711
vn 1.0000 -0.0000 -0.0000
vn -0.0135 -0.0232 -0.9996
vn 0.2305 -0.1721 -0.9577
vn -0.0096 -0.5920 -0.8059
vn -0.0173 -0.9765 0.2147
vn 0.2255 -0.8046 0.5494
vn -0.0074 -0.7021 0.7121
vn -0.0110 -0.9358 -0.3524
vn 0.2324 -0.9568 -0.1748
vn -0.0139 0.5290 0.8485
vn 0.2279 0.8148 0.5331
vn -0.0120 0.9210 0.3894
vn 0.2189 -0.6868 -0.6931
vn 0.8931 -0.0790 0.4429
vn 0.6297 -0.4275 0.6486
vn 0.9102 -0.3483 0.2241
vn 0.8489 0.4026 -0.3426
vn 0.6266 0.7791 0.0180
vn 0.9091 0.4078 0.0854
vn 0.6471 -0.5135 -0.5635
vn 0.6506 0.2816 -0.7053
vn 0.6376 -0.7623 0.1116
vn 0.6526 0.2782 0.7048
vn 0.2144 -0.2086 0.9542
vn 0.2211 0.3711 0.9019
vn 0.2215 0.9752 -0.0023
vn 0.2234 0.3920 -0.8924
vn -0.0337 0.9497 0.3114
vn -0.0581 0.9927 0.1054
vn -0.0000 0.6427 0.7661
vn -0.0000 0.4619 0.8869
vn -0.0763 -0.0689 0.9947
vn -0.1314 -0.2697 0.9540
vn 0.1716 -0.7993 -0.5759
vn 0.0518 -0.9567 -0.2864
vn -0.0518 0.2864 -0.9567
vn -0.1950 0.5651 -0.8016
vn -0.0722 -0.6217 0.7799
vn 0.1018 0.8372 -0.5373
vn -0.0122 0.9639 -0.2661
vn -0.0014 -0.1797 0.9837
vn 0.8889 0.3491 0.2965
vn 0.8521 -0.1136 -0.5109
vn 0.8742 -0.4634 -0.1450
vn -0.0160 0.9781 0.2073
vn -0.0152 0.5428 0.8397
vn 0.2304 0.8153 0.5312
vn 0.1455 -0.2032 0.9683
vn -0.2280 -0.5282 0.8179
vn 0.0800 0.1010 0.9917
vn -0.0827 -0.9916 0.0989
vn 0.1134 -0.8130 -0.5711
vn -0.1739 -0.9643 -0.1996
vn -0.0135 -0.0232 0.9996
vn -0.0096 -0.5920 0.8059
vn 0.2305 -0.1721 0.9577
vn -0.0173 -0.9765 -0.2147
vn -0.0074 -0.7021 -0.7121
vn 0.2255 -0.8046 -0.5494
vn -0.0110 -0.9358 0.3524
vn 0.2324 -0.9568 0.1748
vn -0.0139 0.5290 -0.8485
vn -0.0120 0.9210 -0.3894
vn 0.2279 0.8148 -0.5331
vn 0.2189 -0.6868 0.6931
vn 0.8931 -0.0790 -0.4429
vn 0.9102 -0.3483 -0.2241
vn 0.6297 -0.4275 -0.6486
vn 0.8489 0.4026 0.3426
vn 0.9091 0.4078 -0.0854
vn 0.6266 0.7791 -0.0180
vn 0.6471 -0.5135 0.5635
vn 0.6506 0.2816 0.7053
vn 0.6376 -0.7623 -0.1116
vn 0.6526 0.2782 -0.7048
vn 0.2144 -0.2086 -0.9542
vn 0.2211 0.3711 -0.9019
vn 0.2215 0.9752 0.0023
vn 0.2234 0.3920 0.8924
vn -0.0337 0.9497 -0.3114
vn -0.0000 0.4619 -0.8869
vn -0.0000 0.6427 -0.7661
vn -0.0581 0.9927 -0.1054
vn -0.1314 -0.2697 -0.9540
vn -0.0763 -0.0689 -0.9947
vn 0.1716 -0.7993 0.5759
vn 0.0518 -0.9567 0.2864
vn -0.1950 0.5651 0.8016
vn -0.0518 0.2864 0.9567
vn -0.0722 -0.6217 -0.7799
vn 0.1018 0.8372 0.5373
vn -0.0122 0.9639 0.2661
vn -0.0014 -0.1797 -0.9837
vn 0.8889 0.3491 -0.2965
vn 0.8521 -0.1136 0.5109
vn 0.8742 -0.4634 0.1450
vt 0.205188 0.631156
vt 0.219255 0.632055
vt 0.206501 0.638270
vt 0.857488 0.498245
vt 0.855525 0.500744
vt 0.855525 0.493248
vt 0.857488 0.560709
vt 0.855525 0.558211
vt 0.857488 0.552740
vt 0.535250 0.806005
vt 0.532944 0.811601
vt 0.530384 0.808912
vt 0.208090 0.643700
vt 0.221857 0.640606
vt 0.210130 0.648976
vt 0.209708 0.600006
vt 0.223377 0.608698
vt 0.207809 0.605459
vt 0.212465 0.654199
vt 0.227249 0.649100
vt 0.214192 0.657614
vt 0.204990 0.619560
vt 0.218884 0.623497
vt 0.204756 0.625042
vt 0.223967 0.644683
vt 0.233268 0.620394
vt 0.233129 0.618014
vt 0.235195 0.617564
vt 0.232226 0.631388
vt 0.230372 0.627570
vt 0.231566 0.626778
vt 0.233842 0.637234
vt 0.231363 0.632798
vt 0.236687 0.639793
vt 0.235827 0.615138
vt 0.231169 0.622117
vt 0.220720 0.614677
vt 0.219452 0.619296
vt 0.218785 0.627999
vt 0.220252 0.636432
vt 0.855525 0.523705
vt 0.857488 0.522757
vt 0.857488 0.532752
vt 0.855525 0.533699
vt 0.857488 0.542745
vt 0.855525 0.543693
vt 0.857488 0.488725
vt 0.855525 0.485752
vt 0.857488 0.505741
vt 0.855525 0.508713
vt 0.855525 0.550715
vt 0.857488 0.513237
vt 0.855525 0.515735
vt 0.541135 0.800288
vt 0.537672 0.799815
vt 0.536287 0.794662
vt 0.539224 0.792700
vt 0.539224 0.806930
vt 0.523330 0.811239
vt 0.525410 0.808351
vt 0.516788 0.804185
vt 0.520301 0.803613
vt 0.516013 0.797317
vt 0.519477 0.798006
vt 0.519692 0.790933
vt 0.521899 0.793625
vt 0.526076 0.787254
vt 0.526764 0.790717
vt 0.533381 0.788210
vt 0.532056 0.791410
vt 0.226535 0.603715
vt 0.206178 0.611710
vt 0.232025 0.623627
vt 0.233533 0.634645
vt 0.236499 0.638029
vt 0.237227 0.615840
vt 0.855525 0.480755
vt 0.857488 0.480755
vt 0.221140 0.702264
vt 0.221107 0.705605
vt 0.218690 0.707246
vt 0.216005 0.706411
vt 0.214668 0.703709
vt 0.215772 0.701255
vt 0.218727 0.700397
s 1
f 12/1/1 31/2/2 11/3/3
f 1/4/4 20/5/5 29/6/6
f 8/7/7 27/8/8 7/9/9
f 12/10/10 23/11/10 13/12/10
f 10/13/11 39/14/12 19/15/13
f 17/16/14 36/17/15 16/18/16
f 18/19/17 37/20/18 17/21/14
f 14/22/19 33/23/20 13/24/21
f 19/15/13 39/14/12 38/25/22
f 49/26/23 43/27/24 41/28/25
f 50/29/26 45/30/27 52/31/28
f 40/32/29 39/14/12 47/33/30
f 40/32/29 38/25/22 39/14/12
f 42/34/31 37/20/18 40/32/29
f 43/27/24 36/17/15 42/35/31
f 44/36/32 35/37/33 43/27/24
f 44/36/32 34/38/34 35/37/33
f 45/30/27 33/23/20 44/36/32
f 45/30/27 32/39/35 33/23/20
f 47/33/30 30/40/36 31/2/2
f 47/33/30 39/14/12 30/40/36
f 23/41/37 4/42/38 5/43/39 24/44/40
f 24/44/40 5/43/39 6/45/41 25/46/42
f 9/47/43 29/6/6 28/48/44
f 9/47/43 1/4/4 29/6/6
f 20/5/5 1/4/4 2/49/45 21/50/46
f 25/46/42 6/45/41 7/9/9 26/51/47
f 2/49/45 3/52/48 21/50/46
f 22/53/49 3/52/48 4/42/38 23/41/37
f 3/52/48 22/53/49 21/50/46
f 7/9/9 27/8/8 26/51/47
f 21/54/10 11/55/10 10/56/10 20/57/10
f 22/58/10 12/10/10 11/55/10 21/54/10
f 24/59/10 14/60/10 13/12/10 23/11/10
f 12/10/10 22/58/10 23/11/10
f 24/59/10 25/61/10 15/62/10 14/60/10
f 25/61/10 26/63/10 16/64/10 15/62/10
f 26/63/10 27/65/10 17/66/10 16/64/10
f 28/67/10 18/68/10 17/66/10 27/65/10
f 28/67/10 29/69/10 19/70/10 18/68/10
f 29/69/10 20/57/10 10/56/10 19/70/10
f 32/39/35 12/1/1 13/24/21 33/23/20
f 12/1/1 32/39/35 31/2/2
f 17/16/14 37/71/18 36/17/15
f 38/25/22 37/20/18 18/19/17 19/15/13
f 34/38/34 14/22/19 15/72/50 35/37/33
f 14/22/19 34/38/34 33/23/20
f 35/37/33 15/72/50 16/18/16 36/17/15
f 11/3/3 31/2/2 30/40/36
f 30/40/36 39/14/12 10/13/11 11/3/3
f 45/30/27 44/36/32 51/73/51 52/31/28
f 46/74/52 48/75/53 40/32/29
f 48/75/53 42/34/31 40/32/29
f 41/28/25 43/27/24 42/35/31
f 49/26/23 44/36/32 43/27/24
f 50/29/26 47/33/30 45/30/27
f 48/76/53 41/28/25 42/35/31
f 49/26/23 51/73/51 44/36/32
f 46/74/52 40/32/29 47/33/30
f 50/29/26 46/74/52 47/33/30
f 28/48/44 27/77/8 8/78/7 9/47/43
f 46/79/52 50/80/26 52/81/28 51/82/51 49/83/23 41/84/25 48/85/53
f 40/32/29 37/20/18 38/25/22
f 42/35/31 36/17/15 37/71/18
f 43/27/24 35/37/33 36/17/15
f 44/36/32 33/23/20 34/38/34
f 45/30/27 31/2/2 32/39/35
f 45/30/27 47/33/30 31/2/2
f 64/1/54 63/3/55 83/2/56
f 53/4/57 81/6/58 72/5/59
f 60/7/60 59/9/61 79/8/62
f 64/10/10 65/12/10 75/11/10
f 62/13/63 71/15/64 91/14/65
f 69/16/66 68/18/67 88/17/68
f 70/19/69 69/21/66 89/20/70
f 66/22/71 65/24/72 85/23/73
f 71/15/64 90/25/74 91/14/65
f 101/26/75 93/28/76 95/27/77
f 102/29/78 104/31/79 97/30/80
f 92/32/81 99/33/82 91/14/65
f 92/32/81 91/14/65 90/25/74
f 94/34/83 92/32/81 89/20/70
f 95/27/77 94/35/83 88/17/68
f 96/36/84 95/27/77 87/37/85
f 96/36/84 87/37/85 86/38/86
f 97/30/80 96/36/84 85/23/73
f 97/30/80 85/23/73 84/39/87
f 99/33/82 83/2/56 82/40/88
f 99/33/82 82/40/88 91/14/65
f 75/41/89 76/44/90 57/43/91 56/42/92
f 76/44/90 77/46/93 58/45/94 57/43/91
f 61/47/95 80/48/96 81/6/58
f 61/47/95 81/6/58 53/4/57
f 72/5/59 73/50/97 54/49/98 53/4/57
f 77/46/93 78/51/99 59/9/61 58/45/94
f 54/49/98 73/50/97 55/52/100
f 74/53/101 75/41/89 56/42/92 55/52/100
f 55/52/100 73/50/97 74/53/101
f 59/9/61 78/51/99 79/8/62
f 73/54/10 72/57/10 62/56/10 63/55/10
f 74/58/10 73/54/10 63/55/10 64/10/10
f 76/59/10 75/11/10 65/12/10 66/60/10
f 64/10/10 75/11/10 74/58/10
f 76/59/10 66/60/10 67/62/10 77/61/10
f 77/61/10 67/62/10 68/64/10 78/63/10
f 78/63/10 68/64/10 69/66/10 79/65/10
f 80/67/10 79/65/10 69/66/10 70/68/10
f 80/67/10 70/68/10 71/70/10 81/69/10
f 81/69/10 71/70/10 62/56/10 72/57/10
f 84/39/87 85/23/73 65/24/72 64/1/54
f 64/1/54 83/2/56 84/39/87
f 69/16/66 88/17/68 89/71/70
f 90/25/74 71/15/64 70/19/69 89/20/70
f 86/38/86 87/37/85 67/72/102 66/22/71
f 66/22/71 85/23/73 86/38/86
f 87/37/85 88/17/68 68/18/67 67/72/102
f 63/3/55 82/40/88 83/2/56
f 82/40/88 63/3/55 62/13/63 91/14/65
f 97/30/80 104/31/79 103/73/103 96/36/84
f 98/74/104 92/32/81 100/75/105
f 100/75/105 92/32/81 94/34/83
f 93/28/76 94/35/83 95/27/77
f 101/26/75 95/27/77 96/36/84
f 102/29/78 97/30/80 99/33/82
f 100/76/105 94/35/83 93/28/76
f 101/26/75 96/36/84 103/73/103
f 98/74/104 99/33/82 92/32/81
f 102/29/78 99/33/82 98/74/104
f 80/48/96 61/47/95 60/78/60 79/77/62
f 98/79/104 100/85/105 93/84/76 101/83/75 103/82/103 104/81/79 102/80/78
f 92/32/81 90/25/74 89/20/70
f 94/35/83 89/71/70 88/17/68
f 95/27/77 88/17/68 87/37/85
f 96/36/84 86/38/86 85/23/73
f 97/30/80 84/39/87 83/2/56
f 97/30/80 83/2/56 99/33/82
